<svg width="21" height="25" viewBox="0 0 21 25" fill="none" xmlns="http://www.w3.org/2000/svg">
<path d="M18.6654 12.8643V6.68926C18.6654 4.86909 18.6654 3.959 18.3111 3.26379C17.9995 2.65226 17.5024 2.15508 16.8908 1.84349C16.1956 1.48926 15.2855 1.48926 13.4654 1.48926H6.53203C4.71186 1.48926 3.80178 1.48926 3.10656 1.84349C2.49504 2.15508 1.99785 2.65226 1.68626 3.26379C1.33203 3.959 1.33203 4.86909 1.33203 6.68926V17.9559C1.33203 19.7761 1.33203 20.6862 1.68626 21.3814C1.99785 21.9929 2.49504 22.4901 3.10656 22.8017C3.80178 23.1559 4.71186 23.1559 6.53203 23.1559H9.9987M12.1654 11.2393H5.66536M7.83203 15.5726H5.66536M14.332 6.90592H5.66536M12.707 19.9059L14.8737 22.0726L19.7487 17.1976" stroke="#5C5C5C" stroke-width="2" stroke-linecap="round" stroke-linejoin="round"/>
</svg>
