<svg width="19" height="21" viewBox="0 0 19 21" fill="none" xmlns="http://www.w3.org/2000/svg">
<path d="M12.9931 18.1475H13.9496V15.6475H16.3409V14.6475H13.9496V12.1475H12.9931V14.6475H10.6018V15.6475H12.9931V18.1475ZM13.4714 20.1475C12.1482 20.1475 11.0205 19.6601 10.0882 18.6855C9.15524 17.7101 8.68877 16.5308 8.68877 15.1475C8.68877 13.7641 9.15524 12.5848 10.0882 11.6095C11.0205 10.6348 12.1482 10.1475 13.4714 10.1475C14.7946 10.1475 15.9226 10.6348 16.8556 11.6095C17.7878 12.5848 18.254 13.7641 18.254 15.1475C18.254 16.5308 17.7878 17.7101 16.8556 18.6855C15.9226 19.6601 14.7946 20.1475 13.4714 20.1475ZM0.0800781 18.1475V6.14746L7.73225 0.147461L15.3844 6.14746V8.44746C15.0656 8.34746 14.7467 8.27246 14.4279 8.22246C14.1091 8.17246 13.7902 8.14746 13.4714 8.14746C11.6062 8.14746 10.0241 8.82646 8.72512 10.1845C7.42553 11.5431 6.77573 13.1975 6.77573 15.1475C6.77573 15.6808 6.8277 16.1975 6.93164 16.6975C7.03495 17.1975 7.19819 17.6808 7.42138 18.1475H0.0800781Z" fill="url(#paint0_linear_20_10)"/>
<defs>
<linearGradient id="paint0_linear_20_10" x1="9.16704" y1="0.147461" x2="9.16704" y2="20.1475" gradientUnits="userSpaceOnUse">
<stop stop-color="#F1BD50"/>
<stop offset="1" stop-color="#D19B2A"/>
</linearGradient>
</defs>
</svg>
