<svg width="21" height="21" viewBox="0 0 21 21" fill="none" xmlns="http://www.w3.org/2000/svg">
<mask id="mask0_112_332" style="mask-type:alpha" maskUnits="userSpaceOnUse" x="0" y="0" width="21" height="21">
<rect x="0.615234" y="0.907715" width="20" height="20" fill="#00B894"/>
</mask>
<g mask="url(#mask0_112_332)">
<path d="M3.11589 19.2409C2.65755 19.2409 2.26533 19.0778 1.93922 18.7517C1.61255 18.4251 1.44922 18.0326 1.44922 17.5742V7.57422C1.44922 7.11589 1.61255 6.72366 1.93922 6.39755C2.26533 6.07089 2.65755 5.90755 3.11589 5.90755H5.74089L7.28255 4.24089H12.2826V7.57422H14.7826V10.0742H18.1159V17.5742C18.1159 18.0326 17.9528 18.4251 17.6267 18.7517C17.3001 19.0778 16.9076 19.2409 16.4492 19.2409H3.11589ZM9.78255 16.3242C10.8242 16.3242 11.7098 15.9598 12.4392 15.2309C13.1681 14.5014 13.5326 13.6159 13.5326 12.5742C13.5326 11.5326 13.1681 10.647 12.4392 9.91755C11.7098 9.18866 10.8242 8.82422 9.78255 8.82422C8.74089 8.82422 7.85533 9.18866 7.12589 9.91755C6.397 10.647 6.03255 11.5326 6.03255 12.5742C6.03255 13.6159 6.397 14.5014 7.12589 15.2309C7.85533 15.9598 8.74089 16.3242 9.78255 16.3242ZM9.78255 14.6576C9.19922 14.6576 8.70616 14.4562 8.30339 14.0534C7.90061 13.6506 7.69922 13.1576 7.69922 12.5742C7.69922 11.9909 7.90061 11.4978 8.30339 11.0951C8.70616 10.6923 9.19922 10.4909 9.78255 10.4909C10.3659 10.4909 10.8589 10.6923 11.2617 11.0951C11.6645 11.4978 11.8659 11.9909 11.8659 12.5742C11.8659 13.1576 11.6645 13.6506 11.2617 14.0534C10.8589 14.4562 10.3659 14.6576 9.78255 14.6576ZM16.4492 7.57422V5.90755H14.7826V4.24089H16.4492V2.57422H18.1159V4.24089H19.7826V5.90755H18.1159V7.57422H16.4492Z" fill="url(#paint0_linear_112_332)"/>
</g>
<mask id="mask1_112_332" style="mask-type:alpha" maskUnits="userSpaceOnUse" x="0" y="0" width="21" height="21">
<path d="M0.615234 0.907715H20.6152V20.9077H0.615234V0.907715Z" fill="url(#paint1_linear_112_332)"/>
</mask>
<g mask="url(#mask1_112_332)">
<path d="M9.78255 14.6579C9.19922 14.6579 8.70616 14.4565 8.30339 14.0537C7.90061 13.6509 7.69922 13.1579 7.69922 12.5745C7.69922 11.9912 7.90061 11.4982 8.30339 11.0954C8.70616 10.6926 9.19922 10.4912 9.78255 10.4912C10.3659 10.4912 10.8589 10.6926 11.2617 11.0954C11.6645 11.4982 11.8659 11.9912 11.8659 12.5745C11.8659 13.1579 11.6645 13.6509 11.2617 14.0537C10.8589 14.4565 10.3659 14.6579 9.78255 14.6579Z" fill="url(#paint2_linear_112_332)"/>
</g>
<path d="M16.446 7.57422V5.90755H14.7793V4.24089H16.446V2.57422H18.1126V4.24089H19.7793V5.90755H18.1126V7.57422H16.446Z" fill="url(#paint3_linear_112_332)"/>
<defs>
<linearGradient id="paint0_linear_112_332" x1="15.2262" y1="2.57422" x2="16.5423" y2="30.0262" gradientUnits="userSpaceOnUse">
<stop stop-color="#F1BD50"/>
<stop offset="0.541667" stop-color="#BA7F05"/>
<stop offset="1" stop-color="#7C5F21"/>
</linearGradient>
<linearGradient id="paint1_linear_112_332" x1="10.6152" y1="0.907715" x2="10.6152" y2="20.9077" gradientUnits="userSpaceOnUse">
<stop stop-color="#F1BD50"/>
<stop offset="1" stop-color="#D19B2A"/>
</linearGradient>
<linearGradient id="paint2_linear_112_332" x1="10.8304" y1="10.4912" x2="11.1921" y2="17.3509" gradientUnits="userSpaceOnUse">
<stop stop-color="#F1BD50"/>
<stop offset="0.541667" stop-color="#BA7F05"/>
<stop offset="1" stop-color="#7C5F21"/>
</linearGradient>
<linearGradient id="paint3_linear_112_332" x1="18.5367" y1="2.57422" x2="18.9708" y2="10.8058" gradientUnits="userSpaceOnUse">
<stop stop-color="#F1BD50"/>
<stop offset="0.541667" stop-color="#BA7F05"/>
<stop offset="1" stop-color="#7C5F21"/>
</linearGradient>
</defs>
</svg>
