<svg width="40" height="66" viewBox="0 0 40 66" fill="none" xmlns="http://www.w3.org/2000/svg">
<path d="M5.72398 65.891C4.24273 65.891 2.98092 65.3698 1.93856 64.3274C0.8962 63.285 0.375019 62.0232 0.375019 60.542V5.40658C0.375019 3.92533 0.8962 2.66352 1.93856 1.62116C2.98092 0.578797 4.24273 0.0576172 5.72398 0.0576172H34.5261C36.0073 0.0576172 37.2691 0.578797 38.3115 1.62116C39.3538 2.66352 39.875 3.92533 39.875 5.40658V60.542C39.875 62.0232 39.3538 63.285 38.3115 64.3274C37.2691 65.3698 36.0073 65.891 34.5261 65.891H5.72398ZM3.66669 54.3701H36.5833V11.5784H3.66669V54.3701ZM3.66669 57.6618V60.542C3.66669 61.1455 3.8587 61.6392 4.24273 62.0232C4.62676 62.4073 5.1205 62.5993 5.72398 62.5993H34.5261C35.1295 62.5993 35.6233 62.4073 36.0073 62.0232C36.3913 61.6392 36.5833 61.1455 36.5833 60.542V57.6618H3.66669ZM3.66669 8.28678H36.5833V5.40658C36.5833 4.8031 36.3913 4.30935 36.0073 3.92533C35.6233 3.5413 35.1295 3.34928 34.5261 3.34928H5.72398C5.1205 3.34928 4.62676 3.5413 4.24273 3.92533C3.8587 4.30935 3.66669 4.8031 3.66669 5.40658V8.28678Z" fill="#D19B2A"/>
</svg>
