<svg width="142" height="19" viewBox="0 0 142 19" fill="none" xmlns="http://www.w3.org/2000/svg">
<path d="M1.14878 17.1832L1.49723 17.1581C2.21946 17.1081 2.49505 17.0361 2.49505 16.7388V10.2855C2.49505 8.75828 2.29548 8.56112 1.44655 8.31388L0.949219 8.19183L0.97456 7.87261L6.10938 6.44551V16.7669C6.10938 16.9891 6.25826 17.0392 7.30676 17.1613L7.53167 17.1863L7.60769 17.6057H1.07276L1.14878 17.1832ZM2.0199 3.06867C2.0199 2.01086 2.86884 1 4.16442 1C5.51068 1 6.33428 2.01086 6.33428 3.06867C6.33428 4.12647 5.51068 5.16237 4.16442 5.16237C2.86884 5.16237 2.0199 4.1296 2.0199 3.06867Z" fill="#333333"/>
<path d="M8.62763 17.1831L8.97608 17.1581C9.69831 17.108 9.9739 17.0361 9.9739 16.7387V10.2855C9.9739 8.75826 9.77434 8.56109 8.9254 8.31385L8.42807 8.1918L8.45341 7.87258L13.6389 6.44548L13.5882 8.56422H13.6389C14.9092 7.52832 16.4075 6.42044 17.9755 6.42044C18.7991 6.42044 19.4453 6.73966 20.0186 7.30612C20.6173 7.89761 20.8676 9.03053 20.8676 10.2386V16.7419C20.8676 16.914 20.9911 17.0141 22.0903 17.1612L22.3659 17.1863L22.4419 17.6056H15.9577L16.0337 17.1863L16.4328 17.1612C17.2817 17.1112 17.2817 16.939 17.2817 16.7419V10.9991C17.2817 9.12755 16.4835 8.65811 15.3114 8.65811C14.5639 8.65811 13.9905 8.90535 13.5914 9.14946V16.7606C13.5914 16.9828 13.7149 17.0799 14.5639 17.155L14.963 17.18L15.0137 17.5994H8.55161L8.62763 17.1831Z" fill="#333333"/>
<path d="M23.6362 8.43904C23.2878 7.62535 23.0629 7.38124 22.3406 7.28109L21.9162 7.18407L21.8401 6.76471H28.8946L28.8439 7.18407L28.2959 7.30613C27.447 7.40315 27.2252 7.65038 27.4723 8.34203L29.8164 14.2789L31.4382 10.0414C32.2618 7.97273 31.9356 7.52833 30.7667 7.33117L30.1933 7.18407L30.1173 6.76471H34.7295L34.6534 7.18407L34.1783 7.28109C33.1551 7.45322 32.9809 7.79748 32.0844 10.0633L29.0435 17.8466H27.599L23.6362 8.43904Z" fill="#333333"/>
<path d="M34.5773 12.4543C34.5773 8.98046 37.2698 6.37037 40.7606 6.37037C43.7034 6.37037 45.2239 8.21684 45.2239 10.0664C45.2239 10.3137 45.1985 10.5828 45.1479 10.805C45.1479 10.805 39.389 10.7299 38.4165 10.683C38.3912 10.9052 38.3912 11.2995 38.3912 11.5217C38.4165 14.1068 39.7628 15.9063 41.9548 15.9063C43.3264 15.9063 44.3496 15.2428 45.0212 14.0097L45.3189 14.1568C44.4478 16.6198 42.7024 18 39.9592 18C36.9214 17.9968 34.5773 15.6809 34.5773 12.4543ZM41.882 10.2135C41.9073 8.58926 41.5589 6.9869 40.4122 6.9869C39.4397 6.9869 38.5908 8.11982 38.4165 10.2386L41.882 10.2135Z" fill="#333333"/>
<path d="M46.643 17.2802L46.567 14.1287L47.2639 14.1787L47.9354 15.5589C48.7843 16.792 49.4559 17.4304 50.7515 17.4304C51.9964 17.4304 52.7218 16.7419 52.7218 15.681C52.7218 14.523 51.4515 14.0786 50.0546 13.5372C48.1603 12.8236 46.6145 12.06 46.6145 10.0383C46.6145 7.84756 48.4106 6.44237 51.1031 6.44237C51.9995 6.44237 53.0227 6.6145 53.6974 6.8367L54.9201 6.6145L55.0437 10.1134L54.3943 10.1384L52.5 7.38125C52.1009 7.15905 51.6764 6.98692 51.0777 6.98692C50.0071 6.98692 49.3323 7.60345 49.3323 8.61118C49.3323 9.71906 50.479 10.1384 51.9742 10.7049C53.6942 11.3934 55.5378 12.1101 55.5378 14.2758C55.5378 16.1973 54.0174 17.9468 50.6754 17.9468C49.1613 17.9468 47.6155 17.6745 46.643 17.2802Z" fill="#333333"/>
<path d="M57.9866 14.2757L58.088 8.46408L56.067 8.38897L56.7164 7.1559L58.9338 5.5066L60.9769 3.95432L61.5249 3.97936L61.4996 6.86172H65.3135L64.9904 8.38897H61.4743L61.3982 13.5622C61.3729 15.5088 62.0223 16.1253 63.3432 16.1253C64.2396 16.1253 64.9144 15.8061 65.3642 15.4587L65.4624 15.778C64.3157 17.011 63.0201 17.8967 61.3 17.8967C59.0098 17.8967 57.936 16.7137 57.9866 14.2757Z" fill="#333333"/>
<path d="M65.9152 17.1831L66.2637 17.1581C66.9859 17.108 67.2615 17.0361 67.2615 16.7387V10.2855C67.2615 8.75826 67.0619 8.56109 66.213 8.31385L65.7157 8.1918L65.741 7.87258L70.9265 6.44548L70.8758 8.56422H70.9265C72.1968 7.52832 73.6951 6.42044 75.2631 6.42044C76.0867 6.42044 76.7329 6.73966 77.3062 7.30612C77.9049 7.89761 78.1552 9.03053 78.1552 10.2386V16.7419C78.1552 16.914 78.2787 17.0141 79.3779 17.1612L79.6535 17.1863L79.7295 17.6056H73.2484L73.3244 17.1863L73.7236 17.1612C74.5725 17.1112 74.5725 16.939 74.5725 16.7419V10.9991C74.5725 9.12755 73.7743 8.65811 72.6022 8.65811C71.8546 8.65811 71.2813 8.90535 70.8822 9.14946V16.7606C70.8822 16.9828 71.0057 17.0799 71.8546 17.155L72.2538 17.18L72.3044 17.5994H65.8487L65.9152 17.1831Z" fill="#D19B2A"/>
<path d="M86.7808 15.5808L86.7048 15.5558C85.5328 16.9109 84.4874 17.8967 83.0905 17.8967C81.5953 17.8967 80.3726 16.7888 80.3726 15.3836C80.3726 13.462 82.1433 12.3041 86.7808 11.0742L86.8062 10.3856C86.8822 8.71131 85.9572 7.40627 84.2879 7.40627C83.3661 7.40627 82.9669 7.65351 82.9669 7.89761C82.9669 8.06974 83.7652 8.71131 83.7652 9.42486C83.7652 10.1885 83.0683 10.877 82.0958 10.877C81.1994 10.877 80.4518 10.4076 80.4518 9.54691C80.4518 7.72549 83.9172 6.41731 86.4102 6.41731C89.277 6.41731 90.525 7.62534 90.4237 10.4326L90.2209 14.7702C90.1703 15.731 90.5441 16.1003 91.0921 16.1003C91.4405 16.1003 91.8396 15.706 92.1627 15.3367L92.413 15.609C91.6907 16.5197 90.4173 17.9249 89.0711 17.9249C87.8515 17.9217 86.9551 17.108 86.7808 15.5808ZM86.6573 15.0394L86.8062 11.5655C84.5128 12.182 83.8159 13.0176 83.8159 14.2006C83.8159 15.1865 84.3639 15.803 85.2635 15.803C85.859 15.803 86.331 15.4087 86.6573 15.0394Z" fill="#D19B2A"/>
<path d="M94.1583 14.2757L94.2597 8.46408L92.2387 8.38897L92.888 7.1559L95.1054 5.5066L97.1486 3.95432L97.6966 3.97936L97.6713 6.86172H101.485L101.162 8.38897H97.6459L97.5699 13.5622C97.5445 15.5088 98.1939 16.1253 99.5149 16.1253C100.411 16.1253 101.086 15.8061 101.536 15.4587L101.634 15.778C100.487 17.011 99.1917 17.8967 97.4717 17.8967C95.1815 17.8967 94.1076 16.7137 94.1583 14.2757Z" fill="#D19B2A"/>
<path d="M102.138 17.1832L102.486 17.1581C103.208 17.1081 103.484 17.0361 103.484 16.7388V10.2855C103.484 8.75827 103.284 8.56111 102.436 8.31387L101.938 8.19181L101.964 7.87259L107.098 6.4455V16.7669C107.098 16.9891 107.247 17.0392 108.296 17.1613L108.521 17.1863L108.597 17.6057H102.062L102.138 17.1832ZM103.009 3.06866C103.009 2.01085 103.858 0.999989 105.153 0.999989C106.5 0.999989 107.323 2.01085 107.323 3.06866C107.323 4.12646 106.5 5.16236 105.153 5.16236C103.858 5.16236 103.009 4.12959 103.009 3.06866Z" fill="#D19B2A"/>
<path d="M109.639 12.2071C109.639 9.00549 112.233 6.41731 116.022 6.41731C119.861 6.41731 122.104 9.0274 122.104 12.1069C122.104 15.3586 119.535 17.9436 115.721 17.9436C111.859 17.9468 109.639 15.3367 109.639 12.2071ZM118.166 12.4042C118.166 9.49684 117.669 8.04471 117.02 7.40314C116.696 7.08392 116.348 6.98377 115.898 6.98377C114.352 6.98377 113.529 8.90535 113.529 11.9348C113.529 14.8891 114.004 16.3194 114.65 17.0079C114.948 17.3021 115.372 17.4273 115.822 17.4273C117.343 17.4304 118.166 15.3836 118.166 12.4042Z" fill="#D19B2A"/>
<path d="M123.276 17.1831L123.624 17.1581C124.346 17.108 124.622 17.0361 124.622 16.7387V10.2855C124.622 8.75826 124.422 8.56109 123.573 8.31385L123.076 8.1918L123.101 7.87258L128.287 6.44548L128.236 8.56422H128.287C129.557 7.52832 131.055 6.42044 132.623 6.42044C133.447 6.42044 134.093 6.73966 134.667 7.30612C135.265 7.89761 135.516 9.03053 135.516 10.2386V16.7419C135.516 16.914 135.639 17.0141 136.738 17.1612L137.014 17.1863L137.09 17.6056H130.609L130.685 17.1863L131.084 17.1612C131.933 17.1112 131.933 16.939 131.933 16.7419V10.9991C131.933 9.12755 131.135 8.65811 129.963 8.65811C129.215 8.65811 128.642 8.90535 128.243 9.14946V16.7606C128.243 16.9828 128.366 17.0799 129.215 17.155L129.614 17.18L129.665 17.5994H123.209L123.276 17.1831Z" fill="#D19B2A"/>
<path d="M138.034 15.9501C138.034 14.9142 138.905 14.0536 140.004 14.0536C141.053 14.0536 141.949 14.9643 141.949 15.9501C141.949 17.0329 141.053 17.9218 140.004 17.9218C138.905 17.9218 138.034 17.0361 138.034 15.9501Z" fill="#D19B2A"/>
</svg>
