<svg width="17" height="21" viewBox="0 0 17 21" fill="none" xmlns="http://www.w3.org/2000/svg">
<path d="M0.853516 17.6528V15.6528H2.85352V8.65283C2.85352 7.2695 3.27018 6.04017 4.10352 4.96483C4.93685 3.89017 6.02018 3.18617 7.35352 2.85283V2.15283C7.35352 1.73617 7.49952 1.38217 7.79152 1.09083C8.08285 0.798832 8.43685 0.652832 8.85352 0.652832C9.27018 0.652832 9.62418 0.798832 9.91552 1.09083C10.2075 1.38217 10.3535 1.73617 10.3535 2.15283V2.85283C11.6868 3.18617 12.7702 3.89017 13.6035 4.96483C14.4368 6.04017 14.8535 7.2695 14.8535 8.65283V15.6528H16.8535V17.6528H0.853516ZM8.85352 20.6528C8.30352 20.6528 7.83285 20.4572 7.44152 20.0658C7.04952 19.6738 6.85352 19.2028 6.85352 18.6528H10.8535C10.8535 19.2028 10.6578 19.6738 10.2665 20.0658C9.87452 20.4572 9.40352 20.6528 8.85352 20.6528ZM4.85352 15.6528H12.8535V8.65283C12.8535 7.55283 12.4618 6.61117 11.6785 5.82783C10.8952 5.0445 9.95352 4.65283 8.85352 4.65283C7.75352 4.65283 6.81185 5.0445 6.02852 5.82783C5.24518 6.61117 4.85352 7.55283 4.85352 8.65283V15.6528Z" fill="#656565"/>
</svg>
