<svg width="21" height="20" viewBox="0 0 21 20" fill="none" xmlns="http://www.w3.org/2000/svg">
<path d="M8.65273 14.6L15.7027 7.55L14.3027 6.15L8.65273 11.8L5.80273 8.95L4.40273 10.35L8.65273 14.6ZM10.0527 20C8.6694 20 7.3694 19.7373 6.15273 19.212C4.93607 18.6873 3.87773 17.975 2.97773 17.075C2.07773 16.175 1.3654 15.1167 0.840734 13.9C0.315401 12.6833 0.0527344 11.3833 0.0527344 10C0.0527344 8.61667 0.315401 7.31667 0.840734 6.1C1.3654 4.88333 2.07773 3.825 2.97773 2.925C3.87773 2.025 4.93607 1.31233 6.15273 0.787C7.3694 0.262333 8.6694 0 10.0527 0C11.4361 0 12.7361 0.262333 13.9527 0.787C15.1694 1.31233 16.2277 2.025 17.1277 2.925C18.0277 3.825 18.7401 4.88333 19.2647 6.1C19.7901 7.31667 20.0527 8.61667 20.0527 10C20.0527 11.3833 19.7901 12.6833 19.2647 13.9C18.7401 15.1167 18.0277 16.175 17.1277 17.075C16.2277 17.975 15.1694 18.6873 13.9527 19.212C12.7361 19.7373 11.4361 20 10.0527 20Z" fill="url(#paint0_linear_130_77)"/>
<defs>
<linearGradient id="paint0_linear_130_77" x1="10.0527" y1="0" x2="10.0527" y2="20" gradientUnits="userSpaceOnUse">
<stop stop-color="#F1BD50"/>
<stop offset="1" stop-color="#D19B2A"/>
</linearGradient>
</defs>
</svg>
