<svg width="31" height="31" viewBox="0 0 31 31" fill="none" xmlns="http://www.w3.org/2000/svg">
<circle opacity="0.12" cx="15.8379" cy="15.5195" r="15" fill="black"/>
<path d="M10.9629 20.832H16.6504C17.082 20.832 17.4629 20.4766 17.4629 20.0195V18.3945H18.2754V20.0195C18.2754 20.9336 17.5391 21.6445 16.6504 21.6445H10.9629C10.0488 21.6445 9.33789 20.9336 9.33789 20.0195V14.332C9.33789 13.4434 10.0488 12.707 10.9629 12.707H12.5879V13.5195H10.9629C10.5059 13.5195 10.1504 13.9004 10.1504 14.332V20.0195C10.1504 20.4766 10.5059 20.832 10.9629 20.832ZM15.0254 16.7695H20.7129C21.1445 16.7695 21.5254 16.4141 21.5254 15.957V10.2695C21.5254 9.83789 21.1445 9.45703 20.7129 9.45703H15.0254C14.5684 9.45703 14.2129 9.83789 14.2129 10.2695V15.957C14.2129 16.4141 14.5684 16.7695 15.0254 16.7695ZM13.4004 15.957V10.2695C13.4004 9.38086 14.1113 8.64453 15.0254 8.64453H20.7129C21.6016 8.64453 22.3379 9.38086 22.3379 10.2695V15.957C22.3379 16.8711 21.6016 17.582 20.7129 17.582H15.0254C14.1113 17.582 13.4004 16.8711 13.4004 15.957Z" fill="#3E3E3E"/>
</svg>
