<svg width="18" height="21" viewBox="0 0 18 21" fill="none" xmlns="http://www.w3.org/2000/svg">
<path d="M2.38477 20.1475C1.83477 20.1475 1.36377 19.9518 0.971766 19.5605C0.580432 19.1685 0.384766 18.6975 0.384766 18.1475V4.14746H2.38477V18.1475H13.3848V20.1475H2.38477ZM6.38477 16.1475C5.83477 16.1475 5.3641 15.9518 4.97277 15.5605C4.58077 15.1685 4.38477 14.6975 4.38477 14.1475V2.14746C4.38477 1.59746 4.58077 1.12646 4.97277 0.734461C5.3641 0.343127 5.83477 0.147461 6.38477 0.147461H15.3848C15.9348 0.147461 16.4058 0.343127 16.7978 0.734461C17.1891 1.12646 17.3848 1.59746 17.3848 2.14746V14.1475C17.3848 14.6975 17.1891 15.1685 16.7978 15.5605C16.4058 15.9518 15.9348 16.1475 15.3848 16.1475H6.38477ZM6.38477 14.1475H15.3848V2.14746H6.38477V14.1475Z" fill="#D19B2A"/>
</svg>
