<svg width="20" height="15" viewBox="0 0 20 15" fill="none" xmlns="http://www.w3.org/2000/svg">
<path d="M6.04673 10.1334C6.47466 10.1334 6.83675 10.4955 6.83675 10.9234C6.83675 11.3842 6.47466 11.7134 6.04673 11.7134H4.4667C4.00585 11.7134 3.67668 11.3842 3.67668 10.9234C3.67668 10.4955 4.00585 10.1334 4.4667 10.1334H6.04673ZM12.3669 10.1334C12.7948 10.1334 13.1569 10.4955 13.1569 10.9234C13.1569 11.3842 12.7948 11.7134 12.3669 11.7134H8.68013C8.21928 11.7134 7.89011 11.3842 7.89011 10.9234C7.89011 10.4955 8.21928 10.1334 8.68013 10.1334H12.3669ZM17.3703 0.126465C18.5224 0.126465 19.4771 1.08107 19.4771 2.23318V12.7668C19.4771 13.9518 18.5224 14.8735 17.3703 14.8735H2.62332C1.43829 14.8735 0.516602 13.9518 0.516602 12.7668V2.23318C0.516602 1.08107 1.43829 0.126465 2.62332 0.126465H17.3703ZM17.3703 1.7065H2.62332C2.32706 1.7065 2.09664 1.96984 2.09664 2.23318V3.28654H17.897V2.23318C17.897 1.96984 17.6337 1.7065 17.3703 1.7065ZM17.897 6.44661H2.09664V12.7668C2.09664 13.063 2.32706 13.2934 2.62332 13.2934H17.3703C17.6337 13.2934 17.897 13.063 17.897 12.7668V6.44661Z" fill="#333333"/>
</svg>
