<svg width="135" height="108" viewBox="0 0 135 108" fill="none" xmlns="http://www.w3.org/2000/svg">
<g filter="url(#filter0_d_104_321)">
<mask id="mask0_104_321" style="mask-type:alpha" maskUnits="userSpaceOnUse" x="62" y="6" width="72" height="72">
<rect x="62.0508" y="6.80566" width="71" height="71" fill="#D9D9D9"/>
</mask>
<g mask="url(#mask0_104_321)">
<path d="M97.5508 39.3473C90.1549 39.3473 83.8685 38.1886 78.6914 35.8713C73.5143 33.5539 70.9258 30.7682 70.9258 27.514C70.9258 24.2598 73.5143 21.4741 78.6914 19.1567C83.8685 16.8393 90.1549 15.6807 97.5508 15.6807C104.947 15.6807 111.233 16.8393 116.41 19.1567C121.587 21.4741 124.176 24.2598 124.176 27.514C124.176 30.7682 121.587 33.5539 116.41 35.8713C111.233 38.1886 104.947 39.3473 97.5508 39.3473ZM97.5508 54.139C90.1549 54.139 83.8685 52.9803 78.6914 50.663C73.5143 48.3456 70.9258 45.5598 70.9258 42.3057V34.9098C70.9258 37.0793 71.9365 38.9164 73.9581 40.4212C75.9796 41.924 78.3956 43.1439 81.206 44.0807C84.0164 45.0175 86.9383 45.6949 89.9715 46.113C93.0028 46.5331 95.5293 46.7432 97.5508 46.7432C99.5723 46.7432 102.099 46.5331 105.13 46.113C108.163 45.6949 111.085 45.0175 113.896 44.0807C116.706 43.1439 119.122 41.924 121.143 40.4212C123.165 38.9164 124.176 37.0793 124.176 34.9098V42.3057C124.176 45.5598 121.587 48.3456 116.41 50.663C111.233 52.9803 104.947 54.139 97.5508 54.139Z" fill="url(#paint0_linear_104_321)"/>
</g>
</g>
<g filter="url(#filter1_d_104_321)">
<mask id="mask1_104_321" style="mask-type:alpha" maskUnits="userSpaceOnUse" x="2" y="0" width="72" height="72">
<rect x="2.05078" y="0.805664" width="71" height="71" fill="#D9D9D9"/>
</mask>
<g mask="url(#mask1_104_321)">
<path d="M37.5508 33.3473C30.1549 33.3473 23.8685 32.1886 18.6914 29.8713C13.5143 27.5539 10.9258 24.7682 10.9258 21.514C10.9258 18.2598 13.5143 15.4741 18.6914 13.1567C23.8685 10.8393 30.1549 9.68066 37.5508 9.68066C44.9466 9.68066 51.2331 10.8393 56.4102 13.1567C61.5872 15.4741 64.1758 18.2598 64.1758 21.514C64.1758 24.7682 61.5872 27.5539 56.4102 29.8713C51.2331 32.1886 44.9466 33.3473 37.5508 33.3473ZM37.5508 48.139C30.1549 48.139 23.8685 46.9803 18.6914 44.663C13.5143 42.3456 10.9258 39.5598 10.9258 36.3057V28.9098C10.9258 31.0793 11.9365 32.9164 13.9581 34.4212C15.9796 35.924 18.3956 37.1439 21.206 38.0807C24.0164 39.0175 26.9383 39.6949 29.9715 40.113C33.0028 40.5331 35.5293 40.7432 37.5508 40.7432C39.5723 40.7432 42.0987 40.5331 45.13 40.113C48.1633 39.6949 51.0852 39.0175 53.8956 38.0807C56.706 37.1439 59.122 35.924 61.1435 34.4212C63.165 32.9164 64.1758 31.0793 64.1758 28.9098V36.3057C64.1758 39.5598 61.5872 42.3456 56.4102 44.663C51.2331 46.9803 44.9466 48.139 37.5508 48.139ZM37.5508 62.9307C30.1549 62.9307 23.8685 61.772 18.6914 59.4546C13.5143 57.1373 10.9258 54.3515 10.9258 51.0973V43.7015C10.9258 45.8709 11.9365 47.7081 13.9581 49.2129C15.9796 50.7157 18.3956 51.9355 21.206 52.8723C24.0164 53.8091 26.9383 54.4876 29.9715 54.9077C33.0028 55.3258 35.5293 55.5348 37.5508 55.5348C39.5723 55.5348 42.0987 55.3258 45.13 54.9077C48.1633 54.4876 51.0852 53.8091 53.8956 52.8723C56.706 51.9355 59.122 50.7157 61.1435 49.2129C63.165 47.7081 64.1758 45.8709 64.1758 43.7015V51.0973C64.1758 54.3515 61.5872 57.1373 56.4102 59.4546C51.2331 61.772 44.9466 62.9307 37.5508 62.9307Z" fill="url(#paint1_linear_104_321)"/>
</g>
</g>
<g filter="url(#filter2_d_104_321)">
<mask id="mask2_104_321" style="mask-type:alpha" maskUnits="userSpaceOnUse" x="40" y="34" width="72" height="72">
<rect x="40.0508" y="34.8057" width="71" height="71" fill="#D9D9D9"/>
</mask>
<g mask="url(#mask2_104_321)">
<path d="M75.5508 67.3473C68.1549 67.3473 61.8685 66.1886 56.6914 63.8713C51.5143 61.5539 48.9258 58.7682 48.9258 55.514C48.9258 52.2598 51.5143 49.4741 56.6914 47.1567C61.8685 44.8393 68.1549 43.6807 75.5508 43.6807C82.9466 43.6807 89.2331 44.8393 94.4102 47.1567C99.5872 49.4741 102.176 52.2598 102.176 55.514C102.176 58.7682 99.5872 61.5539 94.4102 63.8713C89.2331 66.1886 82.9466 67.3473 75.5508 67.3473ZM75.5508 82.139C68.1549 82.139 61.8685 80.9803 56.6914 78.663C51.5143 76.3456 48.9258 73.5598 48.9258 70.3057V62.9098C48.9258 65.0793 49.9365 66.9164 51.9581 68.4212C53.9796 69.924 56.3956 71.1439 59.206 72.0807C62.0164 73.0175 64.9383 73.6949 67.9715 74.113C71.0028 74.5331 73.5293 74.7432 75.5508 74.7432C77.5723 74.7432 80.0987 74.5331 83.13 74.113C86.1633 73.6949 89.0852 73.0175 91.8956 72.0807C94.706 71.1439 97.122 69.924 99.1435 68.4212C101.165 66.9164 102.176 65.0793 102.176 62.9098V70.3057C102.176 73.5598 99.5872 76.3456 94.4102 78.663C89.2331 80.9803 82.9466 82.139 75.5508 82.139Z" fill="url(#paint2_linear_104_321)"/>
</g>
</g>
<defs>
<filter id="filter0_d_104_321" x="60.9258" y="9.68066" width="73.25" height="69.774" filterUnits="userSpaceOnUse" color-interpolation-filters="sRGB">
<feFlood flood-opacity="0" result="BackgroundImageFix"/>
<feColorMatrix in="SourceAlpha" type="matrix" values="0 0 0 0 0 0 0 0 0 0 0 0 0 0 0 0 0 0 127 0" result="hardAlpha"/>
<feOffset dy="4"/>
<feGaussianBlur stdDeviation="5"/>
<feComposite in2="hardAlpha" operator="out"/>
<feColorMatrix type="matrix" values="0 0 0 0 0 0 0 0 0 0 0 0 0 0 0 0 0 0 0.1 0"/>
<feBlend mode="normal" in2="BackgroundImageFix" result="effect1_dropShadow_104_321"/>
<feBlend mode="normal" in="SourceGraphic" in2="effect1_dropShadow_104_321" result="shape"/>
</filter>
<filter id="filter1_d_104_321" x="0.925781" y="3.68066" width="73.25" height="73.25" filterUnits="userSpaceOnUse" color-interpolation-filters="sRGB">
<feFlood flood-opacity="0" result="BackgroundImageFix"/>
<feColorMatrix in="SourceAlpha" type="matrix" values="0 0 0 0 0 0 0 0 0 0 0 0 0 0 0 0 0 0 127 0" result="hardAlpha"/>
<feOffset dy="4"/>
<feGaussianBlur stdDeviation="5"/>
<feComposite in2="hardAlpha" operator="out"/>
<feColorMatrix type="matrix" values="0 0 0 0 0 0 0 0 0 0 0 0 0 0 0 0 0 0 0.1 0"/>
<feBlend mode="normal" in2="BackgroundImageFix" result="effect1_dropShadow_104_321"/>
<feBlend mode="normal" in="SourceGraphic" in2="effect1_dropShadow_104_321" result="shape"/>
</filter>
<filter id="filter2_d_104_321" x="38.9258" y="37.6807" width="73.25" height="69.774" filterUnits="userSpaceOnUse" color-interpolation-filters="sRGB">
<feFlood flood-opacity="0" result="BackgroundImageFix"/>
<feColorMatrix in="SourceAlpha" type="matrix" values="0 0 0 0 0 0 0 0 0 0 0 0 0 0 0 0 0 0 127 0" result="hardAlpha"/>
<feOffset dy="4"/>
<feGaussianBlur stdDeviation="5"/>
<feComposite in2="hardAlpha" operator="out"/>
<feColorMatrix type="matrix" values="0 0 0 0 0 0 0 0 0 0 0 0 0 0 0 0 0 0 0.1 0"/>
<feBlend mode="normal" in2="BackgroundImageFix" result="effect1_dropShadow_104_321"/>
<feBlend mode="normal" in="SourceGraphic" in2="effect1_dropShadow_104_321" result="shape"/>
</filter>
<linearGradient id="paint0_linear_104_321" x1="97.5508" y1="15.6807" x2="97.5508" y2="65.4546" gradientUnits="userSpaceOnUse">
<stop stop-color="#F1BD50"/>
<stop offset="1" stop-color="#D19B2A"/>
</linearGradient>
<linearGradient id="paint1_linear_104_321" x1="37.5508" y1="9.68066" x2="37.5508" y2="62.9307" gradientUnits="userSpaceOnUse">
<stop stop-color="#F1BD50"/>
<stop offset="1" stop-color="#D19B2A"/>
</linearGradient>
<linearGradient id="paint2_linear_104_321" x1="75.5508" y1="43.6807" x2="75.5508" y2="93.4546" gradientUnits="userSpaceOnUse">
<stop stop-color="#F1BD50"/>
<stop offset="1" stop-color="#D19B2A"/>
</linearGradient>
</defs>
</svg>
