<svg width="25" height="25" viewBox="0 0 25 25" fill="none" xmlns="http://www.w3.org/2000/svg">
<path d="M7.45979 18.2898H14.8249V16.5902H7.45979V18.2898ZM7.45979 13.7575H18.2242V12.0578H7.45979V13.7575ZM7.45979 9.2251H18.2242V7.52546H7.45979V9.2251ZM5.25026 22.5389C4.68371 22.5389 4.20215 22.3406 3.80557 21.9441C3.40898 21.5475 3.21069 21.0659 3.21069 20.4994V5.31593C3.21069 4.74939 3.40898 4.26782 3.80557 3.87124C4.20215 3.47466 4.68371 3.27637 5.25026 3.27637H20.4337C21.0002 3.27637 21.4818 3.47466 21.8784 3.87124C22.275 4.26782 22.4733 4.74939 22.4733 5.31593V20.4994C22.4733 21.0659 22.275 21.5475 21.8784 21.9441C21.4818 22.3406 21.0002 22.5389 20.4337 22.5389H5.25026ZM5.25026 20.8393H20.4337C20.5092 20.8393 20.5848 20.8015 20.6603 20.726C20.7359 20.6505 20.7736 20.5749 20.7736 20.4994V5.31593C20.7736 5.24039 20.7359 5.16485 20.6603 5.08932C20.5848 5.01378 20.5092 4.97601 20.4337 4.97601H5.25026C5.17472 4.97601 5.09918 5.01378 5.02364 5.08932C4.9481 5.16485 4.91033 5.24039 4.91033 5.31593V20.4994C4.91033 20.5749 4.9481 20.6505 5.02364 20.726C5.09918 20.8015 5.17472 20.8393 5.25026 20.8393Z" fill="#333333"/>
<path d="M7.45984 18.2898H14.8249V16.5901H7.45984V18.2898ZM7.45984 13.7574H18.2242V12.0578H7.45984V13.7574ZM7.45984 9.22503H18.2242V7.52539H7.45984V9.22503Z" fill="#D19B2A"/>
</svg>
