<svg width="19" height="19" viewBox="0 0 19 19" fill="none" xmlns="http://www.w3.org/2000/svg">
<path d="M10.4325 1.78662V11.314L13.7723 7.97412C14.0887 7.62256 14.6161 7.62256 14.9676 7.97412C15.284 8.29053 15.284 8.81787 14.9676 9.13428L10.1512 13.9155C9.8348 14.2671 9.30746 14.2671 8.99105 13.9155L4.2098 9.13428C3.85824 8.81787 3.85824 8.29053 4.2098 7.97412C4.52621 7.62256 5.05355 7.62256 5.40511 7.97412L8.74496 11.314V1.78662C8.74496 1.32959 9.09652 0.942871 9.58871 0.942871C10.0457 0.942871 10.4325 1.32959 10.4325 1.78662ZM5.08871 11.6304L6.77621 13.3179H2.83871C2.5223 13.3179 2.27621 13.5991 2.27621 13.8804V16.6929C2.27621 17.0093 2.5223 17.2554 2.83871 17.2554H16.3387C16.62 17.2554 16.9012 17.0093 16.9012 16.6929V13.8804C16.9012 13.5991 16.62 13.3179 16.3387 13.3179H12.3661L14.0536 11.6304H16.3387C17.5692 11.6304 18.5887 12.6499 18.5887 13.8804V16.6929C18.5887 17.9585 17.5692 18.9429 16.3387 18.9429H2.83871C1.57308 18.9429 0.588707 17.9585 0.588707 16.6929V13.8804C0.588707 12.6499 1.57308 11.6304 2.83871 11.6304H5.08871ZM15.7762 15.2866C15.7762 15.7788 15.3895 16.1304 14.9325 16.1304C14.4403 16.1304 14.0887 15.7788 14.0887 15.2866C14.0887 14.8296 14.4403 14.4429 14.9325 14.4429C15.3895 14.4429 15.7762 14.8296 15.7762 15.2866Z" fill="#333333"/>
</svg>
