<svg width="64" height="52" viewBox="0 0 64 52" fill="none" xmlns="http://www.w3.org/2000/svg">
<mask id="mask0_25_3" style="mask-type:alpha" maskUnits="userSpaceOnUse" x="16" y="0" width="35" height="35">
<rect x="16.0498" y="0.124512" width="34" height="34" fill="#999999"/>
</mask>
<g mask="url(#mask0_25_3)">
<path d="M23.1331 29.8745C22.354 29.8745 21.6867 29.5973 21.1314 29.0429C20.577 28.4876 20.2998 27.8203 20.2998 27.0412V7.20784C20.2998 6.42868 20.577 5.76143 21.1314 5.20609C21.6867 4.65171 22.354 4.37451 23.1331 4.37451H38.7165L45.7998 11.4578V27.0412C45.7998 27.8203 45.5226 28.4876 44.9682 29.0429C44.4129 29.5973 43.7456 29.8745 42.9665 29.8745H23.1331ZM23.1331 27.0412H42.9665V12.8745H37.2998V7.20784H23.1331V27.0412ZM25.9665 24.2078H40.1331V21.3745H25.9665V24.2078ZM25.9665 12.8745H33.0498V10.0412H25.9665V12.8745ZM25.9665 18.5412H40.1331V15.7078H25.9665V18.5412Z" fill="#999999"/>
</g>
<path opacity="0.5" d="M1.70352 47.0939V37.2297H5.01895C7.93789 37.2297 9.67422 39.048 9.67422 42.1447V42.1584C9.67422 45.2687 7.95156 47.0939 5.01895 47.0939H1.70352ZM2.93398 45.9865H4.93691C7.17227 45.9865 8.41641 44.6193 8.41641 42.1721V42.1584C8.41641 39.6974 7.17227 38.3371 4.93691 38.3371H2.93398V45.9865ZM14.3672 47.2307C12.3916 47.2307 11.0723 45.8019 11.0723 43.5392V43.5256C11.0723 41.2629 12.3984 39.8478 14.3604 39.8478C16.3223 39.8478 17.6553 41.256 17.6553 43.5256V43.5392C17.6553 45.8088 16.3291 47.2307 14.3672 47.2307ZM14.374 46.1779C15.625 46.1779 16.4385 45.2072 16.4385 43.5392V43.5256C16.4385 41.8576 15.6182 40.9006 14.3604 40.9006C13.123 40.9006 12.2891 41.8644 12.2891 43.5256V43.5392C12.2891 45.2141 13.1162 46.1779 14.374 46.1779ZM20.6666 47.0939L18.6773 39.9846H19.86L21.2818 45.7678H21.3092L22.9156 39.9846H24.0641L25.6773 45.7678H25.7047L27.1266 39.9846H28.3023L26.3199 47.0939H25.11L23.5035 41.591H23.4762L21.8766 47.0939H20.6666ZM29.6799 47.0939V39.9846H30.8693V40.9963H30.8967C31.2795 40.3332 32.0041 39.8478 33.0842 39.8478C34.6428 39.8478 35.5451 40.8596 35.5451 42.4797V47.0939H34.3557V42.6916C34.3557 41.5363 33.8156 40.9006 32.7219 40.9006C31.6008 40.9006 30.8693 41.7004 30.8693 42.9103V47.0939H29.6799ZM37.5242 47.0939V37.2297H38.7137V47.0939H37.5242ZM43.6664 47.2307C41.6908 47.2307 40.3715 45.8019 40.3715 43.5392V43.5256C40.3715 41.2629 41.6977 39.8478 43.6596 39.8478C45.6215 39.8478 46.9545 41.256 46.9545 43.5256V43.5392C46.9545 45.8088 45.6283 47.2307 43.6664 47.2307ZM43.6732 46.1779C44.9242 46.1779 45.7377 45.2072 45.7377 43.5392V43.5256C45.7377 41.8576 44.9174 40.9006 43.6596 40.9006C42.4223 40.9006 41.5883 41.8644 41.5883 43.5256V43.5392C41.5883 45.2141 42.4154 46.1779 43.6732 46.1779ZM50.6357 47.2307C49.2207 47.2307 48.2705 46.3762 48.2705 45.0842V45.0705C48.2705 43.8605 49.2139 43.1017 50.8477 43.006L52.8848 42.8898V42.2951C52.8848 41.4269 52.3174 40.9006 51.3262 40.9006C50.4102 40.9006 49.8359 41.3381 49.6992 41.9738L49.6855 42.0353H48.5371L48.5439 41.9601C48.6465 40.7912 49.665 39.8478 51.3398 39.8478C53.0215 39.8478 54.0742 40.757 54.0742 42.1789V47.0939H52.8848V45.9387H52.8574C52.4404 46.718 51.5859 47.2307 50.6357 47.2307ZM49.4873 45.0842C49.4873 45.7678 50.0479 46.1984 50.9023 46.1984C52.0234 46.1984 52.8848 45.426 52.8848 44.3937V43.8127L50.9844 43.9289C50.0342 43.9836 49.4873 44.4074 49.4873 45.0705V45.0842ZM58.6578 47.2307C56.8395 47.2307 55.6363 45.7814 55.6363 43.5392V43.5324C55.6363 41.2902 56.8531 39.8478 58.6373 39.8478C59.6422 39.8478 60.4693 40.3537 60.9137 41.174H60.941V37.2297H62.1305V47.0939H60.941V45.8908H60.9137C60.4693 46.718 59.6764 47.2307 58.6578 47.2307ZM58.8902 46.1779C60.0934 46.1779 60.9479 45.132 60.9479 43.5392V43.5324C60.9479 41.9465 60.0865 40.9006 58.8902 40.9006C57.6324 40.9006 56.8531 41.9123 56.8531 43.5324V43.5392C56.8531 45.173 57.6324 46.1779 58.8902 46.1779Z" fill="#414141"/>
</svg>
