<svg width="21" height="21" viewBox="0 0 21 21" fill="none" xmlns="http://www.w3.org/2000/svg">
<path d="M10.3945 15.25C10.6779 15.25 10.9155 15.154 11.1075 14.962C11.2989 14.7707 11.3945 14.5333 11.3945 14.25C11.3945 13.9667 11.2989 13.729 11.1075 13.537C10.9155 13.3457 10.6779 13.25 10.3945 13.25C10.1112 13.25 9.87386 13.3457 9.68253 13.537C9.49053 13.729 9.39453 13.9667 9.39453 14.25C9.39453 14.5333 9.49053 14.7707 9.68253 14.962C9.87386 15.154 10.1112 15.25 10.3945 15.25ZM9.39453 11.25H11.3945V5.25H9.39453V11.25ZM10.3945 20.25C9.0112 20.25 7.7112 19.9873 6.49453 19.462C5.27786 18.9373 4.21953 18.225 3.31953 17.325C2.41953 16.425 1.7072 15.3667 1.18253 14.15C0.657198 12.9333 0.394531 11.6333 0.394531 10.25C0.394531 8.86667 0.657198 7.56667 1.18253 6.35C1.7072 5.13333 2.41953 4.075 3.31953 3.175C4.21953 2.275 5.27786 1.56233 6.49453 1.037C7.7112 0.512334 9.0112 0.25 10.3945 0.25C11.7779 0.25 13.0779 0.512334 14.2945 1.037C15.5112 1.56233 16.5695 2.275 17.4695 3.175C18.3695 4.075 19.0819 5.13333 19.6065 6.35C20.1319 7.56667 20.3945 8.86667 20.3945 10.25C20.3945 11.6333 20.1319 12.9333 19.6065 14.15C19.0819 15.3667 18.3695 16.425 17.4695 17.325C16.5695 18.225 15.5112 18.9373 14.2945 19.462C13.0779 19.9873 11.7779 20.25 10.3945 20.25Z" fill="#D9D9D9"/>
</svg>
