<svg width="68" height="52" viewBox="0 0 68 52" fill="none" xmlns="http://www.w3.org/2000/svg">
<mask id="mask0_150_3" style="mask-type:alpha" maskUnits="userSpaceOnUse" x="16" y="0" width="35" height="35">
<rect x="16.415" y="0.466309" width="34" height="34" fill="#999999"/>
</mask>
<g mask="url(#mask0_150_3)">
<path d="M23.4984 30.2163C22.7192 30.2163 22.052 29.9391 21.4966 29.3847C20.9422 28.8294 20.665 28.1621 20.665 27.383V7.54964C20.665 6.77048 20.9422 6.10323 21.4966 5.54789C22.052 4.9935 22.7192 4.71631 23.4984 4.71631H39.0817L46.165 11.7996V27.383C46.165 28.1621 45.8878 28.8294 45.3335 29.3847C44.7781 29.9391 44.1109 30.2163 43.3317 30.2163H23.4984ZM23.4984 27.383H43.3317V13.2163H37.665V7.54964H23.4984V27.383ZM26.3317 24.5496H40.4984V21.7163H26.3317V24.5496ZM26.3317 13.2163H33.415V10.383H26.3317V13.2163ZM26.3317 18.883H40.4984V16.0496H26.3317V18.883Z" fill="#999999"/>
</g>
<path opacity="0.5" d="M2.13066 47.4357V37.5715H8.11895V38.6789H3.36113V42.0695H7.7293V43.1633H3.36113V47.4357H2.13066ZM11.3422 47.5724C9.92715 47.5724 8.97695 46.718 8.97695 45.426V45.4123C8.97695 44.2023 9.92031 43.4435 11.5541 43.3478L13.5912 43.2316V42.6369C13.5912 41.7687 13.0238 41.2424 12.0326 41.2424C11.1166 41.2424 10.5424 41.6799 10.4057 42.3156L10.392 42.3771H9.24356L9.25039 42.3019C9.35293 41.133 10.3715 40.1896 12.0463 40.1896C13.7279 40.1896 14.7807 41.0988 14.7807 42.5207V47.4357H13.5912V46.2805H13.5639C13.1469 47.0598 12.2924 47.5724 11.3422 47.5724ZM10.1938 45.426C10.1938 46.1096 10.7543 46.5402 11.6088 46.5402C12.7299 46.5402 13.5912 45.7678 13.5912 44.7355V44.1545L11.6908 44.2707C10.7406 44.3254 10.1938 44.7492 10.1938 45.4123V45.426ZM19.6377 47.5724C17.6211 47.5724 16.3428 46.1369 16.3428 43.8742V43.8674C16.3428 41.6252 17.6484 40.1896 19.624 40.1896C21.3945 40.1896 22.4404 41.3654 22.5908 42.5822L22.5977 42.6369H21.4355L21.4219 42.5822C21.2441 41.8713 20.6699 41.2424 19.624 41.2424C18.3867 41.2424 17.5596 42.2678 17.5596 43.881V43.8879C17.5596 45.5422 18.4072 46.5197 19.6377 46.5197C20.6084 46.5197 21.2305 45.9728 21.4287 45.1799L21.4424 45.1252H22.6113L22.6045 45.173C22.4131 46.5266 21.2441 47.5724 19.6377 47.5724ZM26.4156 47.5724C25.11 47.5724 24.4674 46.9846 24.4674 45.6242V41.3107H23.4283V40.3264H24.4674V38.4055H25.6979V40.3264H27.0514V41.3107H25.6979V45.6174C25.6979 46.3762 26.0328 46.5881 26.6686 46.5881C26.8121 46.5881 26.9488 46.5676 27.0514 46.5607V47.5246C26.901 47.5451 26.648 47.5724 26.4156 47.5724ZM35.4119 47.5998C33.2791 47.5998 31.8367 46.5539 31.7137 44.8654L31.7068 44.7697H32.9373L32.951 44.8654C33.0945 45.8566 34.0516 46.465 35.4803 46.465C36.9021 46.465 37.7977 45.8224 37.7977 44.8039V44.7971C37.7977 43.9289 37.2303 43.4435 35.8768 43.1428L34.783 42.9035C32.8553 42.4797 31.9529 41.6115 31.9529 40.1691V40.1623C31.9598 38.5422 33.3953 37.4074 35.4256 37.4074C37.3533 37.4074 38.7615 38.5217 38.8709 40.1349L38.8777 40.2375H37.6473L37.6336 40.1418C37.4832 39.1369 36.6424 38.5422 35.3914 38.5422C34.0721 38.549 33.2107 39.1779 33.2107 40.1281V40.1349C33.2107 40.9416 33.8055 41.4474 35.0906 41.7277L36.1844 41.967C38.2078 42.4113 39.0555 43.2316 39.0555 44.7355V44.7424C39.0555 46.4924 37.6678 47.5998 35.4119 47.5998ZM40.7748 47.4357V37.5715H41.9643V41.4611H41.9916C42.3744 40.6613 43.1469 40.1896 44.2064 40.1896C45.7172 40.1896 46.7494 41.3586 46.7494 43.0812V47.4357H45.56V43.2863C45.56 42.0012 44.9037 41.2424 43.7963 41.2424C42.6957 41.2424 41.9643 42.0764 41.9643 43.2863V47.4357H40.7748ZM51.5859 47.5724C49.542 47.5724 48.3115 46.1437 48.3115 43.9084V43.9016C48.3115 41.7004 49.5693 40.1896 51.5107 40.1896C53.4521 40.1896 54.6348 41.632 54.6348 43.7648V44.2023H49.5146C49.542 45.6652 50.3486 46.5197 51.6133 46.5197C52.5156 46.5197 53.1514 46.0685 53.3564 45.4601L53.377 45.3986H54.5459L54.5322 45.467C54.2998 46.6428 53.1377 47.5724 51.5859 47.5724ZM51.5039 41.2424C50.4717 41.2424 49.665 41.9465 49.5352 43.2726H53.4248C53.3086 41.8918 52.543 41.2424 51.5039 41.2424ZM59.1637 47.5724C57.1197 47.5724 55.8893 46.1437 55.8893 43.9084V43.9016C55.8893 41.7004 57.1471 40.1896 59.0885 40.1896C61.0299 40.1896 62.2125 41.632 62.2125 43.7648V44.2023H57.0924C57.1197 45.6652 57.9264 46.5197 59.191 46.5197C60.0934 46.5197 60.7291 46.0685 60.9342 45.4601L60.9547 45.3986H62.1236L62.11 45.467C61.8775 46.6428 60.7154 47.5724 59.1637 47.5724ZM59.0816 41.2424C58.0494 41.2424 57.2428 41.9465 57.1129 43.2726H61.0025C60.8863 41.8918 60.1207 41.2424 59.0816 41.2424ZM66.1262 47.5724C64.8205 47.5724 64.1779 46.9846 64.1779 45.6242V41.3107H63.1389V40.3264H64.1779V38.4055H65.4084V40.3264H66.7619V41.3107H65.4084V45.6174C65.4084 46.3762 65.7434 46.5881 66.3791 46.5881C66.5227 46.5881 66.6594 46.5676 66.7619 46.5607V47.5246C66.6115 47.5451 66.3586 47.5724 66.1262 47.5724Z" fill="#414141"/>
</svg>
