<svg width="25" height="25" viewBox="0 0 25 25" fill="none" xmlns="http://www.w3.org/2000/svg">
<path d="M14.6414 15.5705C14.8959 15.5705 15.1165 15.4772 15.3031 15.2905C15.4898 15.1039 15.5831 14.8833 15.5831 14.6288C15.5831 14.3743 15.4898 14.1578 15.3031 13.9793C15.1165 13.8015 14.8959 13.7126 14.6414 13.7126C14.3869 13.7126 14.1663 13.8015 13.9797 13.9793C13.7931 14.1578 13.6997 14.3743 13.6997 14.6288C13.6997 14.8833 13.7931 15.1039 13.9797 15.2905C14.1663 15.4772 14.3869 15.5705 14.6414 15.5705ZM14.0306 12.491H15.2522C15.2692 12.0329 15.3286 11.6935 15.4304 11.4729C15.5322 11.2524 15.7782 10.9554 16.1685 10.5822C16.6435 10.1241 16.9659 9.74229 17.1356 9.43689C17.3052 9.13148 17.3901 8.76669 17.3901 8.34251C17.3901 7.62989 17.1356 7.03604 16.6266 6.56096C16.1175 6.08588 15.4558 5.84834 14.6414 5.84834C14.0136 5.84834 13.4581 6.02209 12.9749 6.36957C12.491 6.71774 12.1472 7.18874 11.9436 7.78259L13.038 8.2407C13.2077 7.83349 13.4283 7.52367 13.6997 7.31125C13.9712 7.0995 14.2851 6.99362 14.6414 6.99362C15.0826 6.99362 15.4473 7.12495 15.7358 7.3876C16.0242 7.65093 16.1685 7.99468 16.1685 8.41886C16.1685 8.67337 16.0965 8.91498 15.9526 9.14369C15.8081 9.37309 15.5576 9.64897 15.2013 9.97135C14.7093 10.3955 14.3913 10.7559 14.2474 11.0525C14.1029 11.3498 14.0306 11.8292 14.0306 12.491ZM8.83866 18.3446C8.32964 18.3446 7.89698 18.1665 7.54067 17.8102C7.18436 17.4538 7.00621 17.0212 7.00621 16.5122V4.90667C7.00621 4.39765 7.18436 3.96499 7.54067 3.60868C7.89698 3.25237 8.32964 3.07422 8.83866 3.07422H20.4442C20.9532 3.07422 21.3858 3.25237 21.7421 3.60868C22.0985 3.96499 22.2766 4.39765 22.2766 4.90667V16.5122C22.2766 17.0212 22.0985 17.4538 21.7421 17.8102C21.3858 18.1665 20.9532 18.3446 20.4442 18.3446H8.83866ZM8.83866 16.8176H20.4442C20.512 16.8176 20.5799 16.7836 20.6478 16.7158C20.7156 16.6479 20.7496 16.58 20.7496 16.5122V4.90667C20.7496 4.8388 20.7156 4.77093 20.6478 4.70306C20.5799 4.63519 20.512 4.60126 20.4442 4.60126H8.83866C8.77079 4.60126 8.70292 4.63519 8.63505 4.70306C8.56718 4.77093 8.53325 4.8388 8.53325 4.90667V16.5122C8.53325 16.58 8.56718 16.6479 8.63505 16.7158C8.70292 16.7836 8.77079 16.8176 8.83866 16.8176ZM5.27556 21.9077C4.76655 21.9077 4.33389 21.7296 3.97758 21.3733C3.62127 21.0169 3.44312 20.5843 3.44312 20.0753V6.94272H4.97016V20.0753C4.97016 20.1431 5.00409 20.211 5.07196 20.2789C5.13983 20.3467 5.2077 20.3807 5.27556 20.3807H18.4081V21.9077H5.27556Z" fill="#333333"/>
<path d="M14.6414 15.5703C14.8959 15.5703 15.1165 15.477 15.3031 15.2903C15.4898 15.1037 15.5831 14.8831 15.5831 14.6286C15.5831 14.3741 15.4898 14.1576 15.3031 13.9791C15.1165 13.8013 14.8959 13.7124 14.6414 13.7124C14.3869 13.7124 14.1663 13.8013 13.9797 13.9791C13.7931 14.1576 13.6997 14.3741 13.6997 14.6286C13.6997 14.8831 13.7931 15.1037 13.9797 15.2903C14.1663 15.477 14.3869 15.5703 14.6414 15.5703ZM14.0306 12.4908H15.2522C15.2692 12.0327 15.3286 11.6933 15.4304 11.4727C15.5322 11.2522 15.7782 10.9552 16.1685 10.582C16.6435 10.1239 16.9659 9.7421 17.1356 9.43669C17.3052 9.13128 17.3901 8.76649 17.3901 8.34231C17.3901 7.62969 17.1356 7.03584 16.6266 6.56076C16.1175 6.08568 15.4558 5.84814 14.6414 5.84814C14.0136 5.84814 13.4581 6.02189 12.9749 6.36937C12.491 6.71754 12.1472 7.18855 11.9436 7.7824L13.038 8.24051C13.2077 7.8333 13.4283 7.52348 13.6997 7.31105C13.9712 7.0993 14.2851 6.99342 14.6414 6.99342C15.0826 6.99342 15.4473 7.12475 15.7358 7.3874C16.0242 7.65073 16.1685 7.99448 16.1685 8.41866C16.1685 8.67317 16.0965 8.91478 15.9526 9.1435C15.8081 9.37289 15.5576 9.64878 15.2013 9.97115C14.7093 10.3953 14.3913 10.7557 14.2474 11.0523C14.1029 11.3496 14.0306 11.8291 14.0306 12.4908ZM5.27556 21.9075C4.76655 21.9075 4.33389 21.7294 3.97758 21.3731C3.62127 21.0167 3.44312 20.5841 3.44312 20.0751V6.94252H4.97016V20.0751C4.97016 20.1429 5.00409 20.2108 5.07196 20.2787C5.13983 20.3465 5.2077 20.3805 5.27556 20.3805H18.4081V21.9075H5.27556Z" fill="#D19B2A"/>
</svg>
