<svg width="26" height="26" viewBox="0 0 26 26" fill="none" xmlns="http://www.w3.org/2000/svg">
<path fill-rule="evenodd" clip-rule="evenodd" d="M12.4587 24.1083L12.4594 24.1074C12.4571 24.1062 12.455 24.105 12.4526 24.1036C12.4459 24.0992 12.4384 24.0954 12.4314 24.0915C11.8095 23.7486 10.7771 22.74 10.7114 22.69C10.7107 22.6891 10.71 22.6884 10.7093 22.6877L10.7086 22.6881C10.6602 22.6516 10.6082 22.6191 10.5486 22.5962C10.2046 22.4639 9.81431 22.629 9.67868 22.9648C9.60384 23.1497 9.62419 23.3476 9.71352 23.5106L9.72194 23.5426C10.5533 24.638 11.8729 25.1826 11.8729 25.1826C12.1954 25.3066 12.5609 25.1518 12.6881 24.8372C12.7973 24.5671 12.6942 24.2664 12.4587 24.1083Z" fill="#E82227"/>
<path fill-rule="evenodd" clip-rule="evenodd" d="M7.26933 3.77922C11.2413 1.68319 15.2157 1.8504 19.1877 3.77992C19.6292 3.99436 20.0819 4.14309 20.3429 3.58816C20.5716 3.10198 20.2304 2.83679 19.8148 2.62656C17.7078 1.56065 15.4764 0.991689 13.0974 0.997769C10.8052 0.979061 8.66637 1.5382 6.66576 2.61907C6.24272 2.84731 5.844 3.12279 6.16157 3.65504C6.44243 4.12579 6.86126 3.99436 7.26933 3.77922Z" fill="#1D1D1A"/>
<path fill-rule="evenodd" clip-rule="evenodd" d="M5.98319 21.2561C5.61347 21.2561 5.3125 21.5496 5.3125 21.9104C5.3125 22.271 5.61347 22.5645 5.98319 22.5645C6.35315 22.5645 6.65388 22.271 6.65388 21.9104C6.65388 21.5496 6.35315 21.2561 5.98319 21.2561Z" fill="#1D1D1A"/>
<path fill-rule="evenodd" clip-rule="evenodd" d="M14.7122 10.2586C14.7122 9.89798 14.4115 9.60449 14.0415 9.60449C13.6718 9.60449 13.3711 9.89798 13.3711 10.2586C13.3711 10.6192 13.6718 10.9127 14.0415 10.9127C14.4115 10.9127 14.7122 10.6192 14.7122 10.2586Z" fill="#1D1D1A"/>
<path fill-rule="evenodd" clip-rule="evenodd" d="M21.9168 19.7639C21.5468 19.7639 21.2461 20.0574 21.2461 20.418C21.2461 20.7786 21.5468 21.0721 21.9168 21.0721C22.2865 21.0721 22.5872 20.7786 22.5872 20.418C22.5872 20.0574 22.2865 19.7639 21.9168 19.7639Z" fill="#1D1D1A"/>
<path fill-rule="evenodd" clip-rule="evenodd" d="M16.8697 17.1089C16.4997 17.1089 16.1992 17.4024 16.1992 17.763C16.1992 18.1236 16.4997 18.4171 16.8697 18.4171C17.2394 18.4171 17.5404 18.1236 17.5404 17.763C17.5404 17.4024 17.2394 17.1089 16.8697 17.1089Z" fill="#1D1D1A"/>
<path fill-rule="evenodd" clip-rule="evenodd" d="M16.8697 17.1089C16.4997 17.1089 16.1992 17.4024 16.1992 17.763C16.1992 18.1236 16.4997 18.4171 16.8697 18.4171C17.2394 18.4171 17.5404 18.1236 17.5404 17.763C17.5404 17.4024 17.2394 17.1089 16.8697 17.1089Z" fill="#1D1D1A"/>
<path fill-rule="evenodd" clip-rule="evenodd" d="M24.9519 12.8066C24.582 12.8066 24.2812 13.1001 24.2812 13.4607C24.2812 13.8216 24.582 14.1148 24.9519 14.1148C25.3217 14.1148 25.6226 13.8216 25.6226 13.4607C25.6226 13.1001 25.3217 12.8066 24.9519 12.8066Z" fill="#1D1D1A"/>
<path fill-rule="evenodd" clip-rule="evenodd" d="M24.6302 11.3181C24.6302 10.9575 24.3295 10.6641 23.9595 10.6641C23.5898 10.6641 23.2891 10.9575 23.2891 11.3181C23.2891 11.679 23.5898 11.9722 23.9595 11.9722C24.3295 11.9722 24.6302 11.679 24.6302 11.3181Z" fill="#1D1D1A"/>
<path fill-rule="evenodd" clip-rule="evenodd" d="M4.62772 5.65607C4.99744 5.65607 5.29841 5.36282 5.29841 5.00199C5.29841 4.64139 4.99744 4.3479 4.62772 4.3479C4.258 4.3479 3.95703 4.64139 3.95703 5.00199C3.95703 5.36282 4.258 5.65607 4.62772 5.65607Z" fill="#1D1D1A"/>
<path fill-rule="evenodd" clip-rule="evenodd" d="M2.14525 11.4053C1.89479 11.4053 1.67848 11.5416 1.56342 11.7404L1.56108 11.7392C1.55851 11.7458 1.55594 11.7521 1.55336 11.7586C1.52975 11.8024 1.5108 11.8484 1.49794 11.8973C0.926405 13.3776 0.890625 14.914 0.890625 14.914C0.890625 15.2748 1.19136 15.5681 1.56108 15.5681C1.87795 15.5681 2.14267 15.352 2.21236 15.0634L2.21353 15.0632C2.21353 15.0618 2.21353 15.0606 2.21377 15.0595C2.22452 15.0127 2.23177 14.9643 2.23177 14.914C2.23177 14.8913 2.2271 14.8696 2.22476 14.8474C2.31409 13.3781 2.76145 12.3171 2.76145 12.3171V12.3168C2.79629 12.2378 2.81594 12.1508 2.81594 12.0594C2.81594 11.6988 2.51497 11.4053 2.14525 11.4053Z" fill="#1D1D1A"/>
<path fill-rule="evenodd" clip-rule="evenodd" d="M9.87157 7.34478C4.36106 9.49038 2.93924 14.6239 4.4366 19.6438C4.44478 19.6878 4.45741 19.7301 4.47401 19.7706C4.57387 20.0096 4.81404 20.1789 5.09489 20.1789C5.13512 20.1789 5.17417 20.174 5.21252 20.1674C5.29367 20.1534 5.3692 20.1239 5.43749 20.0842C5.63299 19.9698 5.76535 19.7631 5.76535 19.5248C5.76535 19.4822 5.76044 19.4406 5.75249 19.3999C5.75015 19.3889 5.74641 19.3789 5.7436 19.3679C5.61124 18.8941 5.48426 18.4184 5.38768 17.9376C4.3164 12.6095 7.90627 8.03933 13.174 8.03933C18.0125 8.03933 21.2661 10.9873 21.2661 15.4223C21.2661 17.187 20.5453 18.0662 19.2666 18.0401C19.2645 18.0401 19.2626 18.0393 19.2605 18.0393C19.2589 18.0393 19.2573 18.0398 19.2554 18.0398C19.2306 18.0393 19.2056 18.0408 19.181 18.0393C19.178 18.0422 19.1761 18.0452 19.1731 18.048C18.845 18.0903 18.5901 18.3623 18.5901 18.6934C18.5901 18.9946 18.8003 19.2456 19.0844 19.3216C19.0929 19.3251 19.102 19.3283 19.1179 19.3326C19.1186 19.3326 19.1209 19.3328 19.1219 19.3333C19.1272 19.3342 19.1331 19.3347 19.1385 19.3356C19.1525 19.3375 19.1693 19.3391 19.1901 19.3407C19.2135 19.3428 19.2365 19.3475 19.2605 19.3475C19.2692 19.3475 19.2771 19.3454 19.2858 19.3452C19.4212 19.3492 19.5826 19.3475 19.5826 19.3475C21.6826 19.1852 22.4372 17.4786 22.4372 15.0133C22.4372 8.86717 15.7256 5.06542 9.87157 7.34478Z" fill="#1D1D1A"/>
<path fill-rule="evenodd" clip-rule="evenodd" d="M10.1865 5.59076C10.2144 5.58617 10.2394 5.57576 10.2665 5.56909C10.2386 5.57618 10.2115 5.58368 10.1836 5.59118C10.1844 5.59076 10.1853 5.59076 10.1865 5.59076Z" fill="#00AEEF"/>
<path fill-rule="evenodd" clip-rule="evenodd" d="M10.7156 4.82621C10.7135 4.81545 10.7098 4.8054 10.7072 4.79487C10.6357 4.51448 10.3777 4.30542 10.0686 4.30542C10.0281 4.30542 9.98881 4.31033 9.95046 4.31711C9.89995 4.33138 9.85131 4.34681 9.80173 4.36154C8.7253 4.68262 7.83316 5.1204 6.91786 5.65615C5.65645 6.39466 4.65229 7.22811 3.5927 8.55804C3.4414 8.74793 3.1713 8.99745 2.99287 9.26544C2.90307 9.36366 2.8446 9.48807 2.8287 9.62558C2.79175 9.80471 2.83408 9.98384 3.01041 10.152C3.01672 10.1585 3.02374 10.1644 3.03028 10.1707C3.0539 10.192 3.07939 10.213 3.10769 10.2341C3.11073 10.2364 3.11377 10.238 3.11681 10.2404C3.11681 10.2404 3.11704 10.2404 3.11704 10.2406C3.83006 10.7549 4.2828 9.78296 4.60061 9.3819C6.27195 7.27372 7.88694 6.17484 10.1824 5.58156C10.1981 5.57758 10.2133 5.57314 10.2292 5.56916C10.2917 5.55349 10.3515 5.53104 10.4058 5.49947C10.5982 5.38699 10.7285 5.18377 10.7285 4.94922C10.7285 4.90712 10.7236 4.8662 10.7156 4.82621Z" fill="#1D1D1A"/>
<path fill-rule="evenodd" clip-rule="evenodd" d="M23.0886 8.80205C23.0568 8.74499 23.0187 8.69191 22.9714 8.64678C20.5305 5.53302 17.2689 4.02678 13.3603 3.94727C13.187 3.9496 12.749 3.94727 12.698 3.94727C12.3283 3.94727 12.0273 4.24075 12.0273 4.60135C12.0273 4.96219 12.3283 5.25544 12.698 5.25544C16.1378 5.07678 19.6028 6.46633 21.9453 9.46783L21.9458 9.4683C21.9532 9.47976 21.9626 9.48982 21.9708 9.50057C22.0928 9.65936 22.2853 9.76366 22.504 9.76366C22.8727 9.76366 23.1723 9.47111 23.1723 9.11168C23.1723 8.99919 23.1403 8.89443 23.0886 8.80205Z" fill="#1D1D1A"/>
<path fill-rule="evenodd" clip-rule="evenodd" d="M16.9766 10.6155C16.992 10.6267 17.0074 10.638 17.0228 10.6492C17.0078 10.6371 16.992 10.6267 16.9766 10.6155Z" fill="#00AEEF"/>
<path fill-rule="evenodd" clip-rule="evenodd" d="M16.2976 11.7832C16.2272 11.7249 16.1568 11.6678 16.0859 11.6128C16.1501 11.677 16.2201 11.7345 16.2976 11.7832Z" fill="#00AEEF"/>
<path fill-rule="evenodd" clip-rule="evenodd" d="M13.8921 12.4634C13.8901 12.463 13.8888 12.4626 13.8867 12.4622C13.8888 12.463 13.8909 12.4634 13.893 12.4642L13.8921 12.4634Z" fill="#1D1D1A"/>
<path fill-rule="evenodd" clip-rule="evenodd" d="M16.5915 23.1753C16.2213 23.0448 15.8361 22.9426 15.4849 22.774C12.6517 21.4134 11.1275 19.1874 10.9813 16.1113C10.9161 14.736 11.8279 13.7709 13.1024 13.7218L13.1208 13.7155C13.1982 13.7031 13.2712 13.6776 13.3376 13.6418C13.5427 13.5316 13.6835 13.3214 13.6835 13.0775C13.6835 12.8352 13.5446 12.6262 13.3418 12.5153C13.2523 12.4667 13.1515 12.4367 13.043 12.433C13.0353 12.4328 13.028 12.4307 13.0203 12.4307C13.0053 12.4307 12.9911 12.4342 12.9763 12.4351C11.2706 12.5422 9.89695 13.7643 9.67291 15.424C9.16873 19.1624 12.4181 23.6404 16.1764 24.3906C16.6046 24.4762 16.9918 24.4533 17.1235 23.9722C17.2392 23.5499 16.9764 23.3109 16.5915 23.1753Z" fill="#1D1D1A"/>
<path fill-rule="evenodd" clip-rule="evenodd" d="M16.613 15.2209C16.6067 15.1697 16.5936 15.121 16.5761 15.074C16.4519 14.5963 16.2592 14.0369 15.9828 13.6578C15.9622 13.6253 15.9386 13.5949 15.9126 13.5664C15.9082 13.561 15.9042 13.5547 15.8998 13.5496C15.8988 13.5484 15.8972 13.5479 15.896 13.5467C15.7739 13.4223 15.603 13.344 15.4129 13.344C15.0429 13.344 14.7422 13.6375 14.7422 13.9981C14.7422 14.0668 14.756 14.1316 14.7763 14.1938L14.7738 14.1964C14.7738 14.1964 14.7777 14.2048 14.7845 14.22C14.7929 14.2427 14.8028 14.2644 14.8135 14.2857C14.8832 14.4471 15.0371 14.8269 15.2181 15.4141C15.2279 15.4744 15.245 15.5322 15.27 15.5859C15.3808 15.8254 15.6264 15.9928 15.9126 15.9928C16.0359 15.9928 16.1497 15.9594 16.2505 15.9052C16.469 15.788 16.6189 15.564 16.6189 15.3039C16.6189 15.2759 16.6165 15.2483 16.613 15.2209Z" fill="#1D1D1A"/>
<path fill-rule="evenodd" clip-rule="evenodd" d="M9.40625 20.8843C9.43042 20.9247 9.45292 20.9655 9.47708 21.0059C9.45583 20.9639 9.4325 20.9234 9.40625 20.8843Z" fill="#E82227"/>
<path fill-rule="evenodd" clip-rule="evenodd" d="M8.23047 21.5056C8.26172 21.5744 8.29964 21.6394 8.3438 21.7002C8.3188 21.6573 8.29422 21.6139 8.27172 21.5744C8.26839 21.5685 8.25214 21.5419 8.23047 21.5056Z" fill="#E82227"/>
<path fill-rule="evenodd" clip-rule="evenodd" d="M11.606 9.78564C11.4987 9.78564 11.3055 9.8565 11.3039 9.8565C8.53786 10.6666 6.67078 13.1592 6.69955 16.1822C6.75544 18.0732 7.58608 20.3726 8.13634 21.3342C8.16183 21.3855 8.20626 21.4603 8.23362 21.5057C8.24578 21.526 8.2549 21.5407 8.25701 21.544C8.2694 21.5665 8.2832 21.5905 8.29723 21.6149C8.41883 21.7835 8.61948 21.8948 8.84655 21.8948C8.96371 21.8948 9.07245 21.8627 9.16857 21.8111C9.3767 21.6995 9.51935 21.4862 9.51935 21.2384C9.51935 21.1352 9.49339 21.0391 9.44942 20.9524C9.43586 20.9297 9.42323 20.9068 9.40967 20.8841C8.47496 19.3252 8.00071 17.6048 8.06104 15.6989C8.1312 13.4803 9.71204 11.6848 11.7344 11.0812C11.7746 11.0737 11.8132 11.0618 11.8506 11.0473C11.9105 11.0309 12.0878 10.9194 12.1048 10.8726C12.2105 10.7571 12.2765 10.6065 12.2765 10.4397C12.2765 10.0791 11.9757 9.78564 11.606 9.78564Z" fill="#00AC75"/>
<path fill-rule="evenodd" clip-rule="evenodd" d="M19.7701 20.8144C19.6789 20.7646 19.5765 20.7342 19.4659 20.7307H19.4656C19.4277 20.7344 19.3901 20.7368 19.3524 20.74C16.4786 20.984 14.1438 19.1017 13.8948 16.2994C13.8518 15.8132 13.8674 15.2452 13.1839 15.2948C12.5536 15.3408 12.5483 15.9594 12.5808 16.4491C12.7905 19.6138 15.5177 22.0601 18.8239 22.0948C19.0388 22.0948 19.2566 22.0739 19.4743 22.044C19.5171 22.0382 19.5599 22.0323 19.6029 22.0255C19.6602 22.011 19.7149 21.9898 19.7659 21.9622C19.975 21.8501 20.1183 21.6357 20.1183 21.3869C20.1183 21.1402 19.9768 20.9271 19.7701 20.8144Z" fill="#1D1D1A"/>
</svg>
