<svg width="34" height="34" viewBox="0 0 34 34" fill="none" xmlns="http://www.w3.org/2000/svg">
<ellipse opacity="0.12" cx="16.8369" cy="16.8455" rx="16.3643" ry="16.3455" fill="black"/>
<mask id="mask0_38_224" style="mask-type:alpha" maskUnits="userSpaceOnUse" x="6" y="5" width="23" height="24">
<rect x="6.08789" y="5.57275" width="22.5714" height="22.5455" fill="#D9D9D9"/>
</mask>
<g mask="url(#mask0_38_224)">
<path d="M14.5522 24.3606L13.2355 23.0455L14.8813 21.3546C12.875 21.0884 11.2213 20.5404 9.92033 19.7106C8.61934 18.8808 7.96884 17.9258 7.96884 16.8455C7.96884 15.546 8.87421 14.4381 10.6849 13.5219C12.495 12.6063 14.7246 12.1485 17.3736 12.1485C20.0226 12.1485 22.2525 12.6063 24.0632 13.5219C25.8733 14.4381 26.7784 15.546 26.7784 16.8455C26.7784 17.8162 26.257 18.6851 25.2144 19.4523C24.1723 20.2195 22.8127 20.7909 21.1355 21.1667V19.2409C22.3425 18.9278 23.271 18.5401 23.9212 18.078C24.572 17.6164 24.8974 17.2056 24.8974 16.8455C24.8974 16.3445 24.2275 15.7495 22.8876 15.0606C21.5471 14.3717 19.7091 14.0273 17.3736 14.0273C15.0381 14.0273 13.2004 14.3717 11.8605 15.0606C10.52 15.7495 9.84979 16.3445 9.84979 16.8455C9.84979 17.2212 10.2495 17.6715 11.0489 18.1963C11.8483 18.7205 12.9847 19.1157 14.4581 19.3818L13.2355 18.1606L14.5522 16.8455L18.3141 20.6031L14.5522 24.3606Z" fill="#3E3E3E"/>
</g>
</svg>
