<svg width="6" height="12" viewBox="0 0 6 12" fill="none" xmlns="http://www.w3.org/2000/svg">
<path d="M0.146484 1.5918C0.146484 1.09375 0.556641 0.654297 1.08398 0.654297C1.58203 0.654297 2.02148 1.09375 2.02148 1.5918C2.02148 2.11914 1.58203 2.5293 1.08398 2.5293C0.556641 2.5293 0.146484 2.11914 0.146484 1.5918ZM0.146484 6.2793C0.146484 5.78125 0.556641 5.3418 1.08398 5.3418C1.58203 5.3418 2.02148 5.78125 2.02148 6.2793C2.02148 6.80664 1.58203 7.2168 1.08398 7.2168C0.556641 7.2168 0.146484 6.80664 0.146484 6.2793ZM2.02148 10.9668C2.02148 11.4941 1.58203 11.9043 1.08398 11.9043C0.556641 11.9043 0.146484 11.4941 0.146484 10.9668C0.146484 10.4688 0.556641 10.0293 1.08398 10.0293C1.58203 10.0293 2.02148 10.4688 2.02148 10.9668ZM3.89648 1.5918C3.89648 1.09375 4.30664 0.654297 4.83398 0.654297C5.33203 0.654297 5.77148 1.09375 5.77148 1.5918C5.77148 2.11914 5.33203 2.5293 4.83398 2.5293C4.30664 2.5293 3.89648 2.11914 3.89648 1.5918ZM5.77148 6.2793C5.77148 6.80664 5.33203 7.2168 4.83398 7.2168C4.30664 7.2168 3.89648 6.80664 3.89648 6.2793C3.89648 5.78125 4.30664 5.3418 4.83398 5.3418C5.33203 5.3418 5.77148 5.78125 5.77148 6.2793ZM3.89648 10.9668C3.89648 10.4688 4.30664 10.0293 4.83398 10.0293C5.33203 10.0293 5.77148 10.4688 5.77148 10.9668C5.77148 11.4941 5.33203 11.9043 4.83398 11.9043C4.30664 11.9043 3.89648 11.4941 3.89648 10.9668Z" fill="#5C5C5C"/>
</svg>
