<svg width="23" height="16" viewBox="0 0 23 16" fill="none" xmlns="http://www.w3.org/2000/svg">
<path d="M0.173828 15.9995V13.1995C0.173828 12.6328 0.319828 12.1118 0.611828 11.6365C0.903161 11.1618 1.29049 10.7995 1.77383 10.5495C2.80716 10.0328 3.85716 9.64518 4.92383 9.38651C5.99049 9.12851 7.07383 8.99951 8.17383 8.99951C9.27383 8.99951 10.3572 9.12851 11.4238 9.38651C12.4905 9.64518 13.5405 10.0328 14.5738 10.5495C15.0572 10.7995 15.4445 11.1618 15.7358 11.6365C16.0278 12.1118 16.1738 12.6328 16.1738 13.1995V15.9995H0.173828ZM18.1738 15.9995V12.9995C18.1738 12.2662 17.9698 11.5618 17.5618 10.8865C17.1532 10.2118 16.5738 9.63284 15.8238 9.14951C16.6738 9.24951 17.4738 9.42018 18.2238 9.66151C18.9738 9.90351 19.6738 10.1995 20.3238 10.5495C20.9238 10.8828 21.3822 11.2535 21.6988 11.6615C22.0155 12.0702 22.1738 12.5162 22.1738 12.9995V15.9995H18.1738ZM8.17383 7.99951C7.07383 7.99951 6.13216 7.60784 5.34883 6.82451C4.56549 6.04118 4.17383 5.09951 4.17383 3.99951C4.17383 2.89951 4.56549 1.95785 5.34883 1.17451C6.13216 0.391179 7.07383 -0.000488281 8.17383 -0.000488281C9.27383 -0.000488281 10.2155 0.391179 10.9988 1.17451C11.7822 1.95785 12.1738 2.89951 12.1738 3.99951C12.1738 5.09951 11.7822 6.04118 10.9988 6.82451C10.2155 7.60784 9.27383 7.99951 8.17383 7.99951ZM18.1738 3.99951C18.1738 5.09951 17.7822 6.04118 16.9988 6.82451C16.2155 7.60784 15.2738 7.99951 14.1738 7.99951C13.9905 7.99951 13.7572 7.97884 13.4738 7.93751C13.1905 7.89551 12.9572 7.84951 12.7738 7.79951C13.2238 7.26618 13.5695 6.67451 13.8108 6.02451C14.0528 5.37451 14.1738 4.69951 14.1738 3.99951C14.1738 3.29951 14.0528 2.62451 13.8108 1.97451C13.5695 1.32451 13.2238 0.732845 12.7738 0.199512C13.0072 0.116178 13.2405 0.0618452 13.4738 0.0365119C13.7072 0.0118452 13.9405 -0.000488281 14.1738 -0.000488281C15.2738 -0.000488281 16.2155 0.391179 16.9988 1.17451C17.7822 1.95785 18.1738 2.89951 18.1738 3.99951ZM2.17383 13.9995H14.1738V13.1995C14.1738 13.0162 14.1282 12.8495 14.0368 12.6995C13.9448 12.5495 13.8238 12.4328 13.6738 12.3495C12.7738 11.8995 11.8655 11.5618 10.9488 11.3365C10.0322 11.1118 9.10716 10.9995 8.17383 10.9995C7.24049 10.9995 6.31549 11.1118 5.39883 11.3365C4.48216 11.5618 3.57383 11.8995 2.67383 12.3495C2.52383 12.4328 2.40316 12.5495 2.31183 12.6995C2.21983 12.8495 2.17383 13.0162 2.17383 13.1995V13.9995ZM8.17383 5.99951C8.72383 5.99951 9.19483 5.80351 9.58683 5.41151C9.97816 5.02018 10.1738 4.54951 10.1738 3.99951C10.1738 3.44951 9.97816 2.97884 9.58683 2.58751C9.19483 2.19551 8.72383 1.99951 8.17383 1.99951C7.62383 1.99951 7.15316 2.19551 6.76183 2.58751C6.36983 2.97884 6.17383 3.44951 6.17383 3.99951C6.17383 4.54951 6.36983 5.02018 6.76183 5.41151C7.15316 5.80351 7.62383 5.99951 8.17383 5.99951Z" fill="url(#paint0_linear_41_241)"/>
<defs>
<linearGradient id="paint0_linear_41_241" x1="11.1738" y1="-0.000488281" x2="11.1738" y2="15.9995" gradientUnits="userSpaceOnUse">
<stop stop-color="#F1BD50"/>
<stop offset="1" stop-color="#D19B2A"/>
</linearGradient>
</defs>
</svg>
