<svg width="18" height="18" viewBox="0 0 18 18" fill="none" xmlns="http://www.w3.org/2000/svg">
<path d="M8.95768 14.0003C9.24935 14.0003 9.49602 13.8995 9.69768 13.6978C9.89879 13.4967 9.99935 13.2503 9.99935 12.9587C9.99935 12.667 9.89879 12.4206 9.69768 12.2195C9.49602 12.0178 9.24935 11.917 8.95768 11.917C8.66602 11.917 8.41935 12.0178 8.21768 12.2195C8.01657 12.4206 7.91602 12.667 7.91602 12.9587C7.91602 13.2503 8.01657 13.4967 8.21768 13.6978C8.41935 13.8995 8.66602 14.0003 8.95768 14.0003ZM8.20768 10.792H9.74935C9.74935 10.3337 9.80157 9.97255 9.90602 9.70866C10.0099 9.44477 10.3049 9.08366 10.791 8.62533C11.1521 8.26421 11.4368 7.92033 11.6452 7.59366C11.8535 7.26755 11.9577 6.87533 11.9577 6.41699C11.9577 5.63921 11.673 5.04199 11.1035 4.62533C10.5341 4.20866 9.86046 4.00033 9.08268 4.00033C8.29102 4.00033 7.64879 4.20866 7.15602 4.62533C6.66268 5.04199 6.31879 5.54199 6.12435 6.12533L7.49935 6.66699C7.56879 6.41699 7.72518 6.14616 7.96851 5.85449C8.21129 5.56283 8.58268 5.41699 9.08268 5.41699C9.52713 5.41699 9.86046 5.53838 10.0827 5.78116C10.3049 6.02449 10.416 6.29199 10.416 6.58366C10.416 6.86144 10.3327 7.12171 10.166 7.36449C9.99935 7.60783 9.79101 7.83366 9.54101 8.04199C8.9299 8.58366 8.5549 8.99338 8.41602 9.27116C8.27713 9.54894 8.20768 10.0559 8.20768 10.792ZM8.99935 17.3337C7.84657 17.3337 6.76324 17.1148 5.74935 16.677C4.73546 16.2398 3.85352 15.6462 3.10352 14.8962C2.35352 14.1462 1.7599 13.2642 1.32268 12.2503C0.884905 11.2364 0.666016 10.1531 0.666016 9.00033C0.666016 7.84755 0.884905 6.76421 1.32268 5.75033C1.7599 4.73644 2.35352 3.85449 3.10352 3.10449C3.85352 2.35449 4.73546 1.7606 5.74935 1.32283C6.76324 0.885603 7.84657 0.666992 8.99935 0.666992C10.1521 0.666992 11.2355 0.885603 12.2493 1.32283C13.2632 1.7606 14.1452 2.35449 14.8952 3.10449C15.6452 3.85449 16.2388 4.73644 16.676 5.75033C17.1138 6.76421 17.3327 7.84755 17.3327 9.00033C17.3327 10.1531 17.1138 11.2364 16.676 12.2503C16.2388 13.2642 15.6452 14.1462 14.8952 14.8962C14.1452 15.6462 13.2632 16.2398 12.2493 16.677C11.2355 17.1148 10.1521 17.3337 8.99935 17.3337ZM8.99935 15.667C10.8605 15.667 12.4368 15.0212 13.7285 13.7295C15.0202 12.4378 15.666 10.8614 15.666 9.00033C15.666 7.13921 15.0202 5.56283 13.7285 4.27116C12.4368 2.97949 10.8605 2.33366 8.99935 2.33366C7.13824 2.33366 5.56185 2.97949 4.27018 4.27116C2.97852 5.56283 2.33268 7.13921 2.33268 9.00033C2.33268 10.8614 2.97852 12.4378 4.27018 13.7295C5.56185 15.0212 7.13824 15.667 8.99935 15.667Z" fill="#A2A2A2"/>
</svg>
