<svg width="22" height="15" viewBox="0 0 22 15" fill="none" xmlns="http://www.w3.org/2000/svg">
<path d="M14.5588 14.1475C14.1283 14.1475 13.71 14.1058 13.3038 14.0225C12.897 13.9391 12.5022 13.8225 12.1196 13.6725C13.0443 12.8558 13.7617 11.8808 14.2718 10.7475C14.782 9.61413 15.037 8.41413 15.037 7.14746C15.037 5.88079 14.782 4.68079 14.2718 3.54746C13.7617 2.41413 13.0443 1.43913 12.1196 0.622461C12.5022 0.472461 12.897 0.355794 13.3038 0.272461C13.71 0.189128 14.1283 0.147461 14.5588 0.147461C16.424 0.147461 18.0061 0.826461 19.305 2.18446C20.6046 3.54313 21.2544 5.19746 21.2544 7.14746C21.2544 9.09746 20.6046 10.7515 19.305 12.1095C18.0061 13.4681 16.424 14.1475 14.5588 14.1475ZM6.90659 14.1475C5.04137 14.1475 3.45929 13.4681 2.16033 12.1095C0.860735 10.7515 0.210938 9.09746 0.210938 7.14746C0.210938 5.19746 0.860735 3.54313 2.16033 2.18446C3.45929 0.826461 5.04137 0.147461 6.90659 0.147461C7.33702 0.147461 7.75534 0.189128 8.16155 0.272461C8.56839 0.355794 8.96311 0.472461 9.34572 0.622461C9.07471 0.855794 8.81963 1.10979 8.5805 1.38446C8.34137 1.65979 8.11818 1.94746 7.91094 2.24746C7.75152 2.21413 7.58827 2.18913 7.4212 2.17246C7.25349 2.15579 7.08195 2.14746 6.90659 2.14746C5.5834 2.14746 4.45566 2.63479 3.52337 3.60946C2.59044 4.58479 2.12398 5.76413 2.12398 7.14746C2.12398 8.53079 2.59044 9.70979 3.52337 10.6845C4.45566 11.6598 5.5834 12.1475 6.90659 12.1475C7.08195 12.1475 7.25349 12.1391 7.4212 12.1225C7.58827 12.1058 7.75152 12.0808 7.91094 12.0475C8.11818 12.3475 8.34137 12.6351 8.5805 12.9105C8.81963 13.1851 9.07471 13.4391 9.34572 13.6725C8.96311 13.8225 8.56839 13.9391 8.16155 14.0225C7.75534 14.1058 7.33702 14.1475 6.90659 14.1475ZM10.7327 12.8975C9.82398 12.2475 9.11871 11.4141 8.61685 10.3975C8.11436 9.38079 7.86311 8.29746 7.86311 7.14746C7.86311 5.99746 8.11436 4.91413 8.61685 3.89746C9.11871 2.88079 9.82398 2.04746 10.7327 1.39746C11.6414 2.04746 12.347 2.88079 12.8495 3.89746C13.3513 4.91413 13.6022 5.99746 13.6022 7.14746C13.6022 8.29746 13.3513 9.38079 12.8495 10.3975C12.347 11.4141 11.6414 12.2475 10.7327 12.8975Z" fill="url(#paint0_linear_20_12)"/>
<defs>
<linearGradient id="paint0_linear_20_12" x1="10.7327" y1="0.147461" x2="10.7327" y2="14.1475" gradientUnits="userSpaceOnUse">
<stop stop-color="#F1BD50"/>
<stop offset="1" stop-color="#D19B2A"/>
</linearGradient>
</defs>
</svg>
