<svg width="28" height="31" viewBox="0 0 28 31" fill="none" xmlns="http://www.w3.org/2000/svg">
<path d="M21.7363 12.5601V9.43506C21.7363 5.12033 18.2386 1.62256 13.9238 1.62256C9.6091 1.62256 6.11133 5.12033 6.11133 9.43506V12.5601M13.9238 19.5913V22.7163M8.92383 29.7476H18.9238C21.5491 29.7476 22.8617 29.7476 23.8644 29.2367C24.7464 28.7872 25.4635 28.0701 25.9129 27.1881C26.4238 26.1854 26.4238 24.8728 26.4238 22.2476V20.0601C26.4238 17.4348 26.4238 16.1222 25.9129 15.1195C25.4635 14.2375 24.7464 13.5204 23.8644 13.071C22.8617 12.5601 21.5491 12.5601 18.9238 12.5601H8.92383C6.29858 12.5601 4.98596 12.5601 3.98325 13.071C3.10124 13.5204 2.38414 14.2375 1.93474 15.1195C1.42383 16.1222 1.42383 17.4348 1.42383 20.0601V22.2476C1.42383 24.8728 1.42383 26.1854 1.93474 27.1881C2.38414 28.0701 3.10124 28.7872 3.98325 29.2367C4.98596 29.7476 6.29858 29.7476 8.92383 29.7476Z" stroke="#333333" stroke-width="2" stroke-linecap="round" stroke-linejoin="round"/>
</svg>
