<svg width="22" height="17" viewBox="0 0 22 17" fill="none" xmlns="http://www.w3.org/2000/svg">
<path d="M2.80342 16.7812C2.21886 16.7812 1.71861 16.5856 1.30269 16.1943C0.886052 15.8023 0.677734 15.3313 0.677734 14.7812V2.78125C0.677734 2.23125 0.886052 1.76058 1.30269 1.36925C1.71861 0.97725 2.21886 0.78125 2.80342 0.78125H19.8089C20.3935 0.78125 20.8941 0.97725 21.3107 1.36925C21.7267 1.76058 21.9346 2.23125 21.9346 2.78125V14.7812C21.9346 15.3313 21.7267 15.8023 21.3107 16.1943C20.8941 16.5856 20.3935 16.7812 19.8089 16.7812H2.80342ZM11.3062 9.78125L19.8089 4.78125V2.78125L11.3062 7.78125L2.80342 2.78125V4.78125L11.3062 9.78125Z" fill="url(#paint0_linear_130_76)"/>
<defs>
<linearGradient id="paint0_linear_130_76" x1="11.3062" y1="0.78125" x2="11.3062" y2="16.7812" gradientUnits="userSpaceOnUse">
<stop stop-color="#F1BD50"/>
<stop offset="1" stop-color="#D19B2A"/>
</linearGradient>
</defs>
</svg>
