<svg width="21" height="17" viewBox="0 0 21 17" fill="none" xmlns="http://www.w3.org/2000/svg">
<path d="M7.17383 16.4244C5.29049 16.4244 3.69483 15.7701 2.38683 14.4614C1.07816 13.1534 0.423828 11.5577 0.423828 9.67441C0.423828 7.84108 1.05716 6.29108 2.32383 5.02441C3.59049 3.75775 5.13216 3.06608 6.94883 2.94941L5.12383 1.07441L6.17383 0.0244141L9.82383 3.67441L6.17383 7.32441L5.12383 6.24941L6.89883 4.47441C5.44883 4.64108 4.25716 5.19941 3.32383 6.14941C2.39049 7.09941 1.92383 8.27441 1.92383 9.67441C1.92383 11.1244 2.43616 12.3617 3.46083 13.3864C4.48616 14.4117 5.72383 14.9244 7.17383 14.9244H9.92383V16.4244H7.17383ZM12.4238 7.42441V0.924414H20.9238V7.42441H12.4238ZM12.4238 16.4244V9.92441H20.9238V16.4244H12.4238ZM13.9238 14.9244H19.4238V11.4244H13.9238V14.9244Z" fill="url(#paint0_linear_41_240)"/>
<defs>
<linearGradient id="paint0_linear_41_240" x1="10.6738" y1="0.0244141" x2="10.6738" y2="16.4244" gradientUnits="userSpaceOnUse">
<stop stop-color="#F1BD50"/>
<stop offset="1" stop-color="#D19B2A"/>
</linearGradient>
</defs>
</svg>
