<svg width="81" height="86" viewBox="0 0 81 86" fill="none" xmlns="http://www.w3.org/2000/svg">
<path d="M0.832031 73.2267V64.8101H9.2487V35.3517C9.2487 29.5302 11.0022 24.3568 14.5091 19.8314C18.0161 15.3088 22.5751 12.3462 28.1862 10.9434V7.99756C28.1862 6.24409 28.8006 4.75434 30.0294 3.52831C31.2555 2.29948 32.7452 1.68506 34.4987 1.68506C36.2522 1.68506 37.7419 2.29948 38.968 3.52831C40.1968 4.75434 40.8112 6.24409 40.8112 7.99756V10.9434C46.4223 12.3462 50.9813 15.3088 54.4883 19.8314C57.9952 24.3568 59.7487 29.5302 59.7487 35.3517V64.8101H68.1654V73.2267H0.832031ZM34.4987 85.8517C32.1841 85.8517 30.2034 85.0283 28.5565 83.3814C26.9069 81.7318 26.082 79.7496 26.082 77.4351H42.9154C42.9154 79.7496 42.0919 81.7318 40.4451 83.3814C38.7954 85.0283 36.8133 85.8517 34.4987 85.8517Z" fill="url(#paint0_linear_136_108)"/>
<mask id="mask0_136_108" style="mask-type:alpha" maskUnits="userSpaceOnUse" x="44" y="0" width="37" height="38">
<rect x="44" y="0.268066" width="37" height="37" fill="#D9D9D9"/>
</mask>
<g mask="url(#mask0_136_108)">
<path d="M60.3404 25.8594L71.2091 14.9907L69.0508 12.8323L60.3404 21.5427L55.9466 17.149L53.7883 19.3073L60.3404 25.8594ZM62.4987 34.1844C60.3661 34.1844 58.3619 33.7795 56.4862 32.9696C54.6105 32.1607 52.9789 31.0625 51.5914 29.675C50.2039 28.2875 49.1057 26.6559 48.2969 24.7802C47.487 22.9045 47.082 20.9004 47.082 18.7677C47.082 16.6351 47.487 14.6309 48.2969 12.7552C49.1057 10.8795 50.2039 9.24795 51.5914 7.86045C52.9789 6.47295 54.6105 5.37425 56.4862 4.56437C58.3619 3.7555 60.3661 3.35107 62.4987 3.35107C64.6313 3.35107 66.6355 3.7555 68.5112 4.56437C70.3869 5.37425 72.0185 6.47295 73.406 7.86045C74.7935 9.24795 75.8917 10.8795 76.7005 12.7552C77.5104 14.6309 77.9154 16.6351 77.9154 18.7677C77.9154 20.9004 77.5104 22.9045 76.7005 24.7802C75.8917 26.6559 74.7935 28.2875 73.406 29.675C72.0185 31.0625 70.3869 32.1607 68.5112 32.9696C66.6355 33.7795 64.6313 34.1844 62.4987 34.1844Z" fill="#00B894"/>
</g>
<defs>
<linearGradient id="paint0_linear_136_108" x1="51.4312" y1="1.68506" x2="60.5512" y2="140.035" gradientUnits="userSpaceOnUse">
<stop stop-color="#F1BD50"/>
<stop offset="0.541667" stop-color="#BA7F05"/>
<stop offset="1" stop-color="#7C5F21"/>
</linearGradient>
</defs>
</svg>
