<svg width="79" height="71" viewBox="0 0 79 71" fill="none" xmlns="http://www.w3.org/2000/svg">
<path d="M37.5 30.5208L4.16667 8.64575V52.3958C4.16667 53.1596 4.40972 53.7846 4.89583 54.2708C5.38195 54.7569 6.00694 54.9999 6.77083 54.9999H43.75V59.1666H6.77083C4.82639 59.1666 3.2125 58.5249 1.92917 57.2416C0.643056 55.9555 0 54.3402 0 52.3958V7.60409C0 5.65964 0.643056 4.04575 1.92917 2.76242C3.2125 1.47631 4.82639 0.833252 6.77083 0.833252H68.2292C70.1736 0.833252 71.7889 1.47631 73.075 2.76242C74.3583 4.04575 75 5.65964 75 7.60409V36.2499H70.8333V8.64575L37.5 30.5208ZM37.5 25.8333L69.5833 4.99992H5.41667L37.5 25.8333ZM65.1042 70.8333L62.1875 67.9166L70.7292 59.1666H50.5208V54.9999H70.8333L62.0833 46.2499L65.1042 43.3333L78.75 57.0833L65.1042 70.8333ZM4.16667 8.64575V57.8124V36.2499V36.9791V4.99992V8.64575Z" fill="#226169"/>
</svg>
