<svg width="22" height="17" viewBox="0 0 22 17" fill="none" xmlns="http://www.w3.org/2000/svg">
<path d="M12.6457 9.14746C11.8486 9.14746 11.1711 8.85579 10.6131 8.27246C10.0551 7.68913 9.77615 6.98079 9.77615 6.14746C9.77615 5.31413 10.0551 4.60579 10.6131 4.02246C11.1711 3.43913 11.8486 3.14746 12.6457 3.14746C13.4428 3.14746 14.1204 3.43913 14.6783 4.02246C15.2363 4.60579 15.5153 5.31413 15.5153 6.14746C15.5153 6.98079 15.2363 7.68913 14.6783 8.27246C14.1204 8.85579 13.4428 9.14746 12.6457 9.14746ZM5.95007 12.1475C5.42398 12.1475 4.97378 11.9515 4.59946 11.5595C4.2245 11.1681 4.03702 10.6975 4.03702 10.1475V2.14746C4.03702 1.59746 4.2245 1.12679 4.59946 0.735461C4.97378 0.343461 5.42398 0.147461 5.95007 0.147461H19.3414C19.8675 0.147461 20.318 0.343461 20.6929 0.735461C21.0673 1.12679 21.2544 1.59746 21.2544 2.14746V10.1475C21.2544 10.6975 21.0673 11.1681 20.6929 11.5595C20.318 11.9515 19.8675 12.1475 19.3414 12.1475H5.95007ZM7.86311 10.1475H17.4283C17.4283 9.59746 17.6155 9.12646 17.9898 8.73446C18.3648 8.34313 18.8153 8.14746 19.3414 8.14746V4.14746C18.8153 4.14746 18.3648 3.95146 17.9898 3.55946C17.6155 3.16813 17.4283 2.69746 17.4283 2.14746H7.86311C7.86311 2.69746 7.67563 3.16813 7.30068 3.55946C6.92636 3.95146 6.47615 4.14746 5.95007 4.14746V8.14746C6.47615 8.14746 6.92636 8.34313 7.30068 8.73446C7.67563 9.12646 7.86311 9.59746 7.86311 10.1475ZM18.3849 16.1475H2.12398C1.59789 16.1475 1.14769 15.9518 0.773372 15.5605C0.398416 15.1685 0.210938 14.6975 0.210938 14.1475V3.14746H2.12398V14.1475H18.3849V16.1475Z" fill="url(#paint0_linear_20_13)"/>
<defs>
<linearGradient id="paint0_linear_20_13" x1="10.7327" y1="0.147461" x2="10.7327" y2="16.1475" gradientUnits="userSpaceOnUse">
<stop stop-color="#F1BD50"/>
<stop offset="1" stop-color="#D19B2A"/>
</linearGradient>
</defs>
</svg>
