<svg width="15" height="15" viewBox="0 0 15 15" fill="none" xmlns="http://www.w3.org/2000/svg">
<path d="M1.23438 10.314C1.31641 10.0405 1.45312 9.76709 1.61719 9.54834V9.521H1.64453C1.69922 9.43896 1.78125 9.35693 1.83594 9.30225L10.1484 0.989746C10.832 0.306152 11.9531 0.306152 12.6367 0.989746L13.7031 2.05615C13.7852 2.13818 13.8672 2.24756 13.9219 2.32959C14.3867 3.01318 14.3047 3.94287 13.7031 4.54443L5.39062 12.8569C5.36328 12.8843 5.30859 12.9116 5.28125 12.9663C5.25391 12.9937 5.19922 13.021 5.17188 13.0483V13.0757H5.14453C4.92578 13.2397 4.65234 13.3765 4.37891 13.4585L2.24609 14.0874L1.07031 14.4429C0.851562 14.4976 0.605469 14.4429 0.441406 14.2515C0.25 14.0874 0.195312 13.8413 0.277344 13.6226L0.605469 12.4468L1.23438 10.314ZM10.7227 5.66553L9.02734 3.97021L3.94141 9.05615L4.26953 10.4233L5.63672 10.7515L10.7227 5.66553ZM2.90234 10.2593L2.57422 10.478C2.54688 10.5327 2.51953 10.6147 2.49219 10.6968L2.30078 11.3257L1.86328 12.8296L3.36719 12.3921L3.99609 12.2007C4.07812 12.1733 4.16016 12.146 4.21484 12.1187L4.43359 11.8179L3.58594 11.5991C3.33984 11.5444 3.14844 11.353 3.09375 11.1069L2.90234 10.2593ZM8.86328 6.43115L6.23828 9.05615C6.07422 9.22021 5.77344 9.22021 5.60938 9.05615C5.44531 8.89209 5.44531 8.61865 5.60938 8.45459L8.23438 5.82959C8.39844 5.63818 8.69922 5.63818 8.86328 5.82959C9.02734 5.99365 9.02734 6.26709 8.86328 6.43115Z" fill="#D19B2A"/>
</svg>
