<svg width="23" height="21" viewBox="0 0 23 21" fill="none" xmlns="http://www.w3.org/2000/svg">
<path d="M21.3535 19.2534V17.2534C21.3535 15.3896 20.0787 13.8235 18.3535 13.3794M14.8535 1.54418C16.3194 2.13756 17.3535 3.57473 17.3535 5.25342C17.3535 6.93211 16.3194 8.36927 14.8535 8.96266M16.3535 19.2534C16.3535 17.3897 16.3535 16.4578 16.049 15.7227C15.6431 14.7426 14.8644 13.9639 13.8842 13.5579C13.1492 13.2534 12.2173 13.2534 10.3535 13.2534H7.35352C5.48975 13.2534 4.55787 13.2534 3.82278 13.5579C2.84267 13.9639 2.06397 14.7426 1.658 15.7227C1.35352 16.4578 1.35352 17.3897 1.35352 19.2534M12.8535 5.25342C12.8535 7.46256 11.0627 9.25342 8.85352 9.25342C6.64438 9.25342 4.85352 7.46256 4.85352 5.25342C4.85352 3.04428 6.64438 1.25342 8.85352 1.25342C11.0627 1.25342 12.8535 3.04428 12.8535 5.25342Z" stroke="#656565" stroke-width="1.5" stroke-linecap="round" stroke-linejoin="round"/>
</svg>
