<svg width="17" height="17" viewBox="0 0 17 17" fill="none" xmlns="http://www.w3.org/2000/svg">
<path d="M8.91211 8.9043C7.81211 8.9043 6.87044 8.51263 6.08711 7.7293C5.30378 6.94596 4.91211 6.0043 4.91211 4.9043C4.91211 3.8043 5.30378 2.86263 6.08711 2.0793C6.87044 1.29596 7.81211 0.904297 8.91211 0.904297C10.0121 0.904297 10.9538 1.29596 11.7371 2.0793C12.5204 2.86263 12.9121 3.8043 12.9121 4.9043C12.9121 6.0043 12.5204 6.94596 11.7371 7.7293C10.9538 8.51263 10.0121 8.9043 8.91211 8.9043ZM0.912109 16.9043V14.1043C0.912109 13.5376 1.05811 13.0166 1.35011 12.5413C1.64144 12.0666 2.02878 11.7043 2.51211 11.4543C3.54544 10.9376 4.59544 10.55 5.66211 10.2913C6.72878 10.0333 7.81211 9.9043 8.91211 9.9043C10.0121 9.9043 11.0954 10.0333 12.1621 10.2913C13.2288 10.55 14.2788 10.9376 15.3121 11.4543C15.7954 11.7043 16.1828 12.0666 16.4741 12.5413C16.7661 13.0166 16.9121 13.5376 16.9121 14.1043V16.9043H0.912109Z" fill="white"/>
</svg>
