<svg width="18" height="28" viewBox="0 0 18 28" fill="none" xmlns="http://www.w3.org/2000/svg">
<path d="M6.5 24H11.5V22.75H6.5V24ZM2.75 27.75C2.0625 27.75 1.47417 27.5054 0.985 27.0163C0.495 26.5263 0.25 25.9375 0.25 25.25V2.75C0.25 2.0625 0.495 1.47375 0.985 0.98375C1.47417 0.494583 2.0625 0.25 2.75 0.25H15.25C15.9375 0.25 16.5263 0.494583 17.0163 0.98375C17.5054 1.47375 17.75 2.0625 17.75 2.75V25.25C17.75 25.9375 17.5054 26.5263 17.0163 27.0163C16.5263 27.5054 15.9375 27.75 15.25 27.75H2.75ZM2.75 21.5V25.25H15.25V21.5H2.75ZM2.75 19H15.25V6.5H2.75V19ZM2.75 4H15.25V2.75H2.75V4Z" fill="url(#paint0_linear_1_9099)"/>
<defs>
<linearGradient id="paint0_linear_1_9099" x1="3.24107" y1="0.250001" x2="23.1945" y2="16.7945" gradientUnits="userSpaceOnUse">
<stop stop-color="#1A3C40"/>
<stop offset="0.468163" stop-color="#236269"/>
<stop offset="1" stop-color="#1A3C40"/>
</linearGradient>
</defs>
</svg>
