<svg width="11" height="12" viewBox="0 0 11 12" fill="none" xmlns="http://www.w3.org/2000/svg">
<path d="M10.5059 2.71875C10.9121 2.34375 10.9121 1.6875 10.5059 1.3125C10.1309 0.90625 9.47461 0.90625 9.09961 1.3125L5.81836 4.59375L2.50586 1.3125C2.13086 0.90625 1.47461 0.90625 1.09961 1.3125C0.693359 1.6875 0.693359 2.34375 1.09961 2.71875L4.38086 6L1.09961 9.3125C0.693359 9.6875 0.693359 10.3438 1.09961 10.7188C1.47461 11.125 2.13086 11.125 2.50586 10.7188L5.81836 7.4375L9.09961 10.7188C9.47461 11.125 10.1309 11.125 10.5059 10.7188C10.9121 10.3438 10.9121 9.6875 10.5059 9.3125L7.22461 6L10.5059 2.71875Z" fill="#C94540"/>
</svg>
