<svg width="17" height="23" viewBox="0 0 17 23" fill="none" xmlns="http://www.w3.org/2000/svg">
<path d="M2.02383 15.8781C1.65716 15.2448 1.38216 14.5948 1.19883 13.9281C1.01549 13.2615 0.923828 12.5781 0.923828 11.8781C0.923828 9.64479 1.69883 7.74479 3.24883 6.17812C4.79883 4.61146 6.69049 3.82812 8.92383 3.82812H9.09883L7.49883 2.22813L8.89883 0.828125L12.8988 4.82812L8.89883 8.82812L7.49883 7.42812L9.09883 5.82812H8.92383C7.25716 5.82812 5.84049 6.41546 4.67383 7.59013C3.50716 8.76546 2.92383 10.1948 2.92383 11.8781C2.92383 12.3115 2.97383 12.7365 3.07383 13.1531C3.17383 13.5698 3.32383 13.9781 3.52383 14.3781L2.02383 15.8781ZM8.94883 22.8281L4.94883 18.8281L8.94883 14.8281L10.3488 16.2281L8.74883 17.8281H8.92383C10.5905 17.8281 12.0072 17.2408 13.1738 16.0661C14.3405 14.8908 14.9238 13.4615 14.9238 11.7781C14.9238 11.3448 14.8738 10.9198 14.7738 10.5031C14.6738 10.0865 14.5238 9.67812 14.3238 9.27812L15.8238 7.77812C16.1905 8.41146 16.4655 9.06146 16.6488 9.72812C16.8322 10.3948 16.9238 11.0781 16.9238 11.7781C16.9238 14.0115 16.1488 15.9115 14.5988 17.4781C13.0488 19.0448 11.1572 19.8281 8.92383 19.8281H8.74883L10.3488 21.4281L8.94883 22.8281Z" fill="#3E3E3E"/>
</svg>
