<svg width="23" height="23" viewBox="0 0 23 23" fill="none" xmlns="http://www.w3.org/2000/svg">
<path d="M18.6819 5.58864C18.1673 5.37496 17.7587 4.96567 17.5458 4.45076L17.546 4.45388L16.7984 2.64893C16.5851 2.13411 16.176 1.7251 15.6612 1.51184C15.1463 1.29858 14.5679 1.29854 14.053 1.51172L12.2479 2.25623C11.7333 2.46978 11.1549 2.47021 10.64 2.25744L8.83692 1.51056C8.32199 1.29726 7.74342 1.29726 7.22848 1.51056C6.71355 1.72386 6.30444 2.13299 6.09115 2.64794L5.34376 4.45236C5.12993 4.96636 4.7209 5.37451 4.20646 5.58724L2.4034 6.33412C2.14829 6.43969 1.91649 6.5945 1.72123 6.7897C1.52597 6.98491 1.37109 7.21667 1.26544 7.47175C1.15978 7.72683 1.10542 8.00024 1.10547 8.27634C1.10551 8.55244 1.15996 8.82582 1.2657 9.08087L2.01148 10.8866C2.22502 11.4012 2.22545 11.9796 2.01268 12.4946L1.26583 14.2977C1.05298 14.8126 1.05327 15.3909 1.26664 15.9056C1.48001 16.4202 1.889 16.8291 2.40371 17.0423L4.20806 17.7897C4.72263 18.0034 5.13129 18.4127 5.34419 18.9276L6.0918 20.7325C6.30524 21.2469 6.71412 21.6556 7.22864 21.8687C7.74315 22.0818 8.32122 22.082 8.83587 21.8692L10.6402 21.1229C11.1548 20.9093 11.7332 20.9089 12.2482 21.1217L14.0512 21.8685C14.5661 22.0818 15.1447 22.0818 15.6597 21.8685C16.1746 21.6552 16.5837 21.2461 16.797 20.7312L17.5444 18.9267C17.7581 18.4121 18.1673 18.0035 18.6822 17.7906L20.4853 17.0437C20.7404 16.9381 20.9722 16.7833 21.1674 16.5881C21.3627 16.3929 21.5176 16.1611 21.6232 15.9061C21.7289 15.651 21.7833 15.3776 21.7832 15.1015C21.7832 14.8254 21.7287 14.552 21.623 14.2969L20.8774 12.4943C20.6631 11.9794 20.6634 11.4002 20.8767 10.8851L21.6236 9.08193C21.8369 8.56698 21.8369 7.98838 21.6236 7.47343C21.4103 6.95848 21.0012 6.54935 20.4863 6.33605L18.6819 5.58864Z" stroke="#5C5C5C" stroke-width="1.65425" stroke-linecap="round" stroke-linejoin="round"/>
<path d="M15.5801 16.032C15.5801 15.3105 15.5801 14.9498 15.4911 14.6563C15.2906 13.9954 14.7735 13.4783 14.1126 13.2778C13.8191 13.1887 13.4583 13.1887 12.7369 13.1887H10.1521C9.4307 13.1887 9.06998 13.1887 8.77645 13.2778C8.11558 13.4783 7.59841 13.9954 7.39794 14.6563C7.3089 14.9498 7.3089 15.3105 7.3089 16.032M13.7708 9.05312C13.7708 10.3379 12.7293 11.3794 11.4445 11.3794C10.1597 11.3794 9.11823 10.3379 9.11823 9.05312C9.11823 7.76835 10.1597 6.72684 11.4445 6.72684C12.7293 6.72684 13.7708 7.76835 13.7708 9.05312Z" stroke="#5C5C5C" stroke-width="1.65425" stroke-linecap="round" stroke-linejoin="round"/>
</svg>
