<svg width="25" height="25" viewBox="0 0 25 25" fill="none" xmlns="http://www.w3.org/2000/svg">
<path d="M11.6966 23.7587C9.21441 23.0904 7.16182 21.6347 5.53884 19.3916C3.91586 17.1477 3.10437 14.6414 3.10437 11.8728V5.28541L11.6966 2.07764L20.2889 5.28541V11.7582C20.0215 11.6628 19.7401 11.5719 19.4445 11.4856C19.1482 11.4 18.8568 11.3286 18.5704 11.2713V6.48832L11.6966 3.91065L4.82282 6.48832V11.8728C4.82282 12.8848 4.96602 13.8731 5.25243 14.8377C5.53884 15.8015 5.93523 16.7081 6.4416 17.5574C6.9472 18.4075 7.54866 19.1667 8.24597 19.8349C8.94251 20.5032 9.7013 21.0379 10.5223 21.4388L10.551 21.4102C10.7037 21.8302 10.8996 22.2312 11.1387 22.6131C11.377 22.995 11.6489 23.3482 11.9544 23.6728C11.9162 23.6919 11.878 23.7064 11.8398 23.7163C11.8016 23.7255 11.7539 23.7396 11.6966 23.7587Z" fill="#333333"/>
<path d="M17.4248 18.6324C17.9021 18.6324 18.3077 18.4651 18.6414 18.1306C18.9759 17.7968 19.1432 17.3913 19.1432 16.9139C19.1432 16.4366 18.9759 16.031 18.6414 15.6973C18.3077 15.3628 17.9021 15.1955 17.4248 15.1955C16.9474 15.1955 16.5419 15.3628 16.2081 15.6973C15.8736 16.031 15.7063 16.4366 15.7063 16.9139C15.7063 17.3913 15.8736 17.7968 16.2081 18.1306C16.5419 18.4651 16.9474 18.6324 17.4248 18.6324ZM17.4248 22.0693C18.0167 22.0693 18.5608 21.9307 19.0573 21.6534C19.5537 21.3769 19.9547 21.0096 20.2602 20.5513C19.8401 20.3031 19.3914 20.1122 18.9141 19.9785C18.4367 19.8449 17.9403 19.778 17.4248 19.778C16.9092 19.778 16.4128 19.8449 15.9354 19.9785C15.4581 20.1122 15.0094 20.3031 14.5893 20.5513C14.8948 21.0096 15.2958 21.3769 15.7922 21.6534C16.2887 21.9307 16.8328 22.0693 17.4248 22.0693ZM17.4248 23.7877C15.9927 23.7877 14.7753 23.2867 13.7725 22.2847C12.7704 21.2819 12.2694 20.0644 12.2694 18.6324C12.2694 17.2004 12.7704 15.9829 13.7725 14.9801C14.7753 13.9781 15.9927 13.4771 17.4248 13.4771C18.8568 13.4771 20.0742 13.9781 21.077 14.9801C22.0791 15.9829 22.5801 17.2004 22.5801 18.6324C22.5801 20.0644 22.0791 21.2819 21.077 22.2847C20.0742 23.2867 18.8568 23.7877 17.4248 23.7877Z" fill="#D19B2A"/>
</svg>
