<svg width="25" height="25" viewBox="0 0 25 25" fill="none" xmlns="http://www.w3.org/2000/svg">
<path d="M4.91724 20.9077C4.36724 20.9077 3.89624 20.712 3.50424 20.3207C3.1129 19.9287 2.91724 19.4577 2.91724 18.9077V4.90771C2.91724 4.35771 3.1129 3.88671 3.50424 3.49471C3.89624 3.10338 4.36724 2.90771 4.91724 2.90771H18.9172C19.4672 2.90771 19.9382 3.10338 20.3302 3.49471C20.7216 3.88671 20.9172 4.35771 20.9172 4.90771V10.5827C20.6006 10.4327 20.2756 10.3077 19.9422 10.2077C19.6089 10.1077 19.2672 10.0327 18.9172 9.98271V4.90771H4.91724V17.7577C5.75057 16.9577 6.69657 16.3077 7.75524 15.8077C8.81324 15.3077 9.9589 15.016 11.1922 14.9327C11.1089 15.2494 11.0422 15.5827 10.9922 15.9327C10.9422 16.2827 10.9172 16.6244 10.9172 16.9577C10.1672 17.041 9.4589 17.2244 8.79224 17.5077C8.12557 17.791 7.50057 18.1744 6.91724 18.6577V18.9077H11.2172C11.3339 19.2744 11.4672 19.6244 11.6172 19.9577C11.7672 20.291 11.9506 20.6077 12.1672 20.9077H4.91724ZM11.9172 12.9077H12.1672C12.5506 12.3577 13.0049 11.87 13.5302 11.4447C14.0549 11.02 14.6339 10.6827 15.2672 10.4327C15.3172 10.266 15.3549 10.0994 15.3802 9.93271C15.4049 9.76605 15.4172 9.59105 15.4172 9.40771C15.4172 8.44105 15.0756 7.61605 14.3922 6.93271C13.7089 6.24938 12.8839 5.90771 11.9172 5.90771C10.9506 5.90771 10.1256 6.24938 9.44224 6.93271C8.7589 7.61605 8.41724 8.44105 8.41724 9.40771C8.41724 10.3744 8.7589 11.1994 9.44224 11.8827C10.1256 12.566 10.9506 12.9077 11.9172 12.9077ZM11.9172 10.9077C11.5006 10.9077 11.1466 10.7617 10.8552 10.4697C10.5632 10.1784 10.4172 9.82438 10.4172 9.40771C10.4172 8.99105 10.5632 8.63705 10.8552 8.34572C11.1466 8.05372 11.5006 7.90771 11.9172 7.90771C12.3339 7.90771 12.6879 8.05372 12.9792 8.34572C13.2712 8.63705 13.4172 8.99105 13.4172 9.40771C13.4172 9.82438 13.2712 10.1784 12.9792 10.4697C12.6879 10.7617 12.3339 10.9077 11.9172 10.9077ZM16.9172 21.9077L16.6172 20.4077C16.4172 20.3244 16.2299 20.237 16.0552 20.1457C15.8799 20.0537 15.7006 19.941 15.5172 19.8077L14.0672 20.2577L13.0672 18.5577L14.2172 17.5577C14.1839 17.3244 14.1672 17.1077 14.1672 16.9077C14.1672 16.7077 14.1839 16.491 14.2172 16.2577L13.0672 15.2577L14.0672 13.5577L15.5172 14.0077C15.7006 13.8744 15.8799 13.7617 16.0552 13.6697C16.2299 13.5784 16.4172 13.491 16.6172 13.4077L16.9172 11.9077H18.9172L19.2172 13.4077C19.4172 13.491 19.6049 13.5827 19.7802 13.6827C19.9549 13.7827 20.1339 13.9077 20.3172 14.0577L21.7672 13.5577L22.7672 15.3077L21.6172 16.3077C21.6506 16.5077 21.6672 16.716 21.6672 16.9327C21.6672 17.1494 21.6506 17.3577 21.6172 17.5577L22.7672 18.5577L21.7672 20.2577L20.3172 19.8077C20.1339 19.941 19.9549 20.0537 19.7802 20.1457C19.6049 20.237 19.4172 20.3244 19.2172 20.4077L18.9172 21.9077H16.9172ZM17.9172 18.9077C18.4672 18.9077 18.9382 18.712 19.3302 18.3207C19.7216 17.9287 19.9172 17.4577 19.9172 16.9077C19.9172 16.3577 19.7216 15.8867 19.3302 15.4947C18.9382 15.1034 18.4672 14.9077 17.9172 14.9077C17.3672 14.9077 16.8962 15.1034 16.5042 15.4947C16.1129 15.8867 15.9172 16.3577 15.9172 16.9077C15.9172 17.4577 16.1129 17.9287 16.5042 18.3207C16.8962 18.712 17.3672 18.9077 17.9172 18.9077Z" fill="#333333"/>
<path d="M16.9148 21.9077L16.6148 20.4077C16.4148 20.3244 16.2275 20.237 16.0528 20.1457C15.8775 20.0537 15.6982 19.941 15.5148 19.8077L14.0648 20.2577L13.0648 18.5577L14.2148 17.5577C14.1815 17.3244 14.1648 17.1077 14.1648 16.9077C14.1648 16.7077 14.1815 16.491 14.2148 16.2577L13.0648 15.2577L14.0648 13.5577L15.5148 14.0077C15.6982 13.8744 15.8775 13.7617 16.0528 13.6697C16.2275 13.5784 16.4148 13.491 16.6148 13.4077L16.9148 11.9077H18.9148L19.2148 13.4077C19.4148 13.491 19.6025 13.5827 19.7778 13.6827C19.9525 13.7827 20.1315 13.9077 20.3148 14.0577L21.7648 13.5577L22.7648 15.3077L21.6148 16.3077C21.6482 16.5077 21.6648 16.716 21.6648 16.9327C21.6648 17.1494 21.6482 17.3577 21.6148 17.5577L22.7648 18.5577L21.7648 20.2577L20.3148 19.8077C20.1315 19.941 19.9525 20.0537 19.7778 20.1457C19.6025 20.237 19.4148 20.3244 19.2148 20.4077L18.9148 21.9077H16.9148ZM17.9148 18.9077C18.4648 18.9077 18.9358 18.712 19.3278 18.3207C19.7192 17.9287 19.9148 17.4577 19.9148 16.9077C19.9148 16.3577 19.7192 15.8867 19.3278 15.4947C18.9358 15.1034 18.4648 14.9077 17.9148 14.9077C17.3648 14.9077 16.8938 15.1034 16.5018 15.4947C16.1105 15.8867 15.9148 16.3577 15.9148 16.9077C15.9148 17.4577 16.1105 17.9287 16.5018 18.3207C16.8938 18.712 17.3648 18.9077 17.9148 18.9077Z" fill="#D19B2A"/>
</svg>
