<svg width="20" height="22" viewBox="0 0 20 22" fill="none" xmlns="http://www.w3.org/2000/svg">
<path d="M18.4235 4.08029C19.1456 4.40119 19.6269 5.0831 19.6269 5.84523C19.6269 16.2744 11.9655 21.2483 9.95986 21.2483C7.95425 21.2483 0.373047 16.1942 0.373047 5.84523C0.373047 5.0831 0.814281 4.40119 1.5363 4.08029L9.23785 0.871313C9.47852 0.791089 9.71919 0.750977 9.99998 0.750977C10.2407 0.750977 10.4813 0.791089 10.722 0.871313L18.4235 4.08029ZM9.99998 19.3229C13.7304 17.7586 17.7015 12.8248 17.7015 5.84523L9.99998 2.63625L2.29843 5.84523C2.29843 12.6643 6.06898 17.7184 9.99998 19.3229ZM7.75369 10.6186L8.95706 11.8219L12.1259 8.09151C12.3265 7.85084 12.6073 7.77061 12.8881 7.77061C13.6101 7.77061 13.8507 8.41241 13.8507 8.73331C13.8507 8.93387 13.7705 9.17454 13.6101 9.33499L9.7593 13.8276C9.47852 14.1485 9.11751 14.1886 9.03728 14.1886C8.7565 14.1886 8.51583 14.1083 8.35538 13.9078L6.42999 11.9824C6.22943 11.8219 6.14921 11.5813 6.14921 11.3005C6.14921 10.779 6.55033 10.3378 7.1119 10.3378C7.35257 10.3378 7.59324 10.4581 7.75369 10.6186Z" fill="#333333"/>
</svg>
