<svg width="114" height="114" viewBox="0 0 114 114" fill="none" xmlns="http://www.w3.org/2000/svg">
<path d="M56.75 78.5054C64.916 78.5054 70.6543 74.7534 73.9648 71.2222C75.9512 69.0151 79.2617 68.7944 81.4688 70.7808C83.6758 72.7671 83.6758 76.0776 81.6895 78.2847C76.834 83.5815 68.4473 89.0991 56.75 89.0991C44.832 89.0991 36.4453 83.5815 31.5898 78.2847C29.6035 76.0776 29.6035 72.7671 31.8105 70.7808C34.0176 68.7944 37.3281 69.0151 39.3145 71.2222C42.625 74.7534 48.3633 78.5054 56.75 78.5054ZM46.1562 46.7241C46.1562 50.6968 43.0664 53.7866 39.0938 53.7866C35.1211 53.7866 32.0312 50.6968 32.0312 46.7241C32.0312 42.9722 35.1211 39.6616 39.0938 39.6616C43.0664 39.6616 46.1562 42.9722 46.1562 46.7241ZM67.3438 46.7241C67.3438 42.9722 70.4336 39.6616 74.4062 39.6616C78.3789 39.6616 81.4688 42.9722 81.4688 46.7241C81.4688 50.6968 78.3789 53.7866 74.4062 53.7866C70.4336 53.7866 67.3438 50.6968 67.3438 46.7241ZM113.25 57.3179C113.25 88.6577 87.8691 113.818 56.75 113.818C25.4102 113.818 0.25 88.6577 0.25 57.3179C0.25 26.1987 25.4102 0.817871 56.75 0.817871C87.8691 0.817871 113.25 26.1987 113.25 57.3179ZM56.75 11.4116C31.3691 11.4116 10.8438 32.1577 10.8438 57.3179C10.8438 82.6987 31.3691 103.224 56.75 103.224C81.9102 103.224 102.656 82.6987 102.656 57.3179C102.656 32.1577 81.9102 11.4116 56.75 11.4116Z" fill="#1AD184"/>
</svg>
