<svg width="238" height="30" viewBox="0 0 238 30" fill="none" xmlns="http://www.w3.org/2000/svg">
<path d="M0.335995 28.5143L0.922653 28.4716C2.13863 28.3862 2.60263 28.2634 2.60263 27.7562V16.7477C2.60263 14.1424 2.26663 13.8061 0.837321 13.3843L0 13.1761L0.042666 12.6316L8.68787 10.1971V27.8043C8.68787 28.1833 8.93853 28.2687 10.7038 28.4769L11.0825 28.5196L11.2105 29.235H0.207997L0.335995 28.5143ZM1.80264 4.43662C1.80264 2.63213 3.23195 0.907715 5.41325 0.907715C7.67988 0.907715 9.06653 2.63213 9.06653 4.43662C9.06653 6.24111 7.67988 8.00823 5.41325 8.00823C3.23195 8.00823 1.80264 6.24645 1.80264 4.43662Z" fill="#333333"/>
<path d="M12.9297 28.5142L13.5164 28.4715C14.7324 28.3861 15.1964 28.2633 15.1964 27.7561V16.7476C15.1964 14.1423 14.8604 13.806 13.4311 13.3842L12.5938 13.176L12.6364 12.6315L21.367 10.197L21.2816 13.8113H21.367C23.5056 12.0442 26.0282 10.1543 28.6682 10.1543C30.0548 10.1543 31.1428 10.6988 32.1081 11.6652C33.1161 12.6742 33.5374 14.6068 33.5374 16.6676V27.7614C33.5374 28.0551 33.7454 28.2259 35.5961 28.4768L36.0601 28.5195L36.1881 29.2349H25.2709L25.3989 28.5195L26.0709 28.4768C27.5002 28.3914 27.5002 28.0978 27.5002 27.7614V17.9649C27.5002 14.7723 26.1562 13.9715 24.1829 13.9715C22.9243 13.9715 21.9589 14.3933 21.287 14.8097V27.7935C21.287 28.1725 21.4949 28.338 22.9243 28.4661L23.5963 28.5089L23.6816 29.2243H12.8017L12.9297 28.5142Z" fill="#333333"/>
<path d="M38.1958 13.5979C37.6092 12.2099 37.2305 11.7934 36.0145 11.6226L35.2999 11.4571L35.1719 10.7417H47.049L46.9637 11.4571L46.041 11.6653C44.6117 11.8308 44.2384 12.2526 44.6544 13.4324L48.601 23.56L51.3316 16.3314C52.7183 12.8024 52.169 12.0443 50.201 11.708L49.2357 11.4571L49.1077 10.7417H56.8729L56.7449 11.4571L55.9449 11.6226C54.2223 11.9162 53.9289 12.5035 52.4196 16.3687L47.2997 29.6462H44.8677L38.1958 13.5979Z" fill="#333333"/>
<path d="M56.6172 20.4473C56.6172 14.5214 61.1505 10.0688 67.0277 10.0688C71.9823 10.0688 74.5422 13.2187 74.5422 16.3739C74.5422 16.7957 74.4996 17.2548 74.4142 17.6338C74.4142 17.6338 64.7184 17.5057 63.0811 17.4256C63.0384 17.8047 63.0384 18.4774 63.0384 18.8564C63.0811 23.2662 65.3477 26.336 69.0383 26.336C71.3476 26.336 73.0703 25.2042 74.2009 23.1007L74.7022 23.3516C73.2356 27.5532 70.297 29.9076 65.6784 29.9076C60.5638 29.9022 56.6172 25.9516 56.6172 20.4473ZM68.9157 16.6248C68.9583 13.854 68.3717 11.1206 66.441 11.1206C64.8037 11.1206 63.3744 13.0532 63.0811 16.6675L68.9157 16.6248Z" fill="#333333"/>
<path d="M76.9327 28.6799L76.8047 23.3038L77.978 23.3892L79.1087 25.7436C80.538 27.8471 81.6686 28.9362 83.8499 28.9362C85.9459 28.9362 87.1672 27.7617 87.1672 25.9518C87.1672 23.9765 85.0286 23.2184 82.6766 22.2948C79.4873 21.0776 76.8847 19.7749 76.8847 16.3261C76.8847 12.589 79.9086 10.1919 84.4419 10.1919C85.9512 10.1919 87.6739 10.4855 88.8098 10.8646L90.8685 10.4855L91.0765 16.4542L89.9832 16.4969L86.7939 11.7935C86.1219 11.4145 85.4072 11.1208 84.3992 11.1208C82.5966 11.1208 81.4606 12.1726 81.4606 13.8916C81.4606 15.7815 83.3913 16.4969 85.9086 17.4632C88.8045 18.6378 91.9085 19.8603 91.9085 23.5547C91.9085 26.8327 89.3485 29.8171 83.7219 29.8171C81.1726 29.8171 78.57 29.3526 76.9327 28.6799Z" fill="#333333"/>
<path d="M96.0288 23.5549L96.1995 13.6409L92.7969 13.5127L93.8902 11.4093L97.6235 8.59577L101.063 5.94775L101.986 5.99046L101.943 10.9074H108.365L107.821 13.5127H101.901L101.773 22.3377C101.73 25.6584 102.823 26.7101 105.047 26.7101C106.557 26.7101 107.693 26.1655 108.45 25.5729L108.615 26.1175C106.685 28.221 104.503 29.7318 101.607 29.7318C97.7515 29.7318 95.9435 27.7138 96.0288 23.5549Z" fill="#333333"/>
<path d="M109.379 28.5142L109.966 28.4715C111.182 28.3861 111.646 28.2633 111.646 27.7561V16.7476C111.646 14.1423 111.31 13.806 109.88 13.3842L109.043 13.176L109.086 12.6315L117.816 10.197L117.731 13.8113H117.816C119.955 12.0442 122.477 10.1543 125.117 10.1543C126.504 10.1543 127.592 10.6988 128.557 11.6652C129.565 12.6742 129.987 14.6068 129.987 16.6676V27.7614C129.987 28.0551 130.195 28.2259 132.045 28.4768L132.509 28.5195L132.637 29.2349H121.725L121.853 28.5195L122.525 28.4768C123.955 28.3914 123.955 28.0978 123.955 27.7614V17.9649C123.955 14.7723 122.611 13.9715 120.637 13.9715C119.379 13.9715 118.413 14.3933 117.742 14.8097V27.7935C117.742 28.1725 117.949 28.338 119.379 28.4661L120.051 28.5089L120.136 29.2243H109.267L109.379 28.5142Z" fill="#D19B2A"/>
<path d="M144.508 25.7807L144.38 25.738C142.407 28.0497 140.647 29.7314 138.295 29.7314C135.777 29.7314 133.719 27.8415 133.719 25.4444C133.719 22.1664 136.7 20.1911 144.508 18.093L144.551 16.9184C144.679 14.0622 143.121 11.836 140.311 11.836C138.759 11.836 138.087 12.2577 138.087 12.6741C138.087 12.9678 139.431 14.0622 139.431 15.2794C139.431 16.5821 138.257 17.7566 136.62 17.7566C135.111 17.7566 133.852 16.9558 133.852 15.4877C133.852 12.3805 139.687 10.1489 143.884 10.1489C148.711 10.1489 150.812 12.2097 150.641 16.9985L150.3 24.398C150.215 26.037 150.844 26.667 151.766 26.667C152.353 26.667 153.025 25.9943 153.569 25.3643L153.99 25.8288C152.774 27.3824 150.631 29.7795 148.364 29.7795C146.311 29.7741 144.801 28.386 144.508 25.7807ZM144.3 24.8571L144.551 18.9311C140.689 19.9829 139.516 21.4083 139.516 23.4264C139.516 25.1081 140.439 26.1598 141.953 26.1598C142.956 26.1598 143.751 25.4871 144.3 24.8571Z" fill="#D19B2A"/>
<path d="M156.931 23.5549L157.102 13.6409L153.699 13.5127L154.793 11.4093L158.526 8.59577L161.966 5.94775L162.888 5.99046L162.846 10.9074H169.267L168.723 13.5127H162.803L162.675 22.3377C162.632 25.6584 163.726 26.7101 165.95 26.7101C167.459 26.7101 168.595 26.1655 169.352 25.5729L169.518 26.1175C167.587 28.221 165.406 29.7318 162.51 29.7318C158.654 29.7318 156.846 27.7138 156.931 23.5549Z" fill="#D19B2A"/>
<path d="M170.367 28.5143L170.954 28.4716C172.17 28.3862 172.634 28.2634 172.634 27.7562V16.7477C172.634 14.1424 172.298 13.8061 170.869 13.3843L170.031 13.1761L170.074 12.6316L178.719 10.1971V27.8043C178.719 28.1833 178.97 28.2687 180.735 28.4769L181.114 28.5196L181.242 29.235H170.239L170.367 28.5143ZM171.834 4.43662C171.834 2.63213 173.263 0.907715 175.445 0.907715C177.711 0.907715 179.098 2.63213 179.098 4.43662C179.098 6.24111 177.711 8.00823 175.445 8.00823C173.263 8.00823 171.834 6.24645 171.834 4.43662Z" fill="#D19B2A"/>
<path d="M182.992 20.0256C182.992 14.5641 187.36 10.1489 193.739 10.1489C200.203 10.1489 203.979 14.6014 203.979 19.8547C203.979 25.4017 199.653 29.8115 193.232 29.8115C186.731 29.8168 182.992 25.3643 182.992 20.0256ZM197.349 20.3619C197.349 15.4022 196.512 12.9251 195.419 11.8306C194.875 11.2861 194.288 11.1152 193.531 11.1152C190.928 11.1152 189.541 14.3932 189.541 19.5611C189.541 24.6009 190.341 27.0407 191.429 28.2152C191.931 28.717 192.645 28.9306 193.403 28.9306C195.963 28.9359 197.349 25.4444 197.349 20.3619Z" fill="#D19B2A"/>
<path d="M205.953 28.5142L206.54 28.4715C207.756 28.3861 208.22 28.2633 208.22 27.7561V16.7476C208.22 14.1423 207.884 13.806 206.454 13.3842L205.617 13.176L205.66 12.6315L214.39 10.197L214.305 13.8113H214.39C216.529 12.0442 219.052 10.1543 221.692 10.1543C223.078 10.1543 224.166 10.6988 225.132 11.6652C226.14 12.6742 226.561 14.6068 226.561 16.6676V27.7614C226.561 28.0551 226.769 28.2259 228.62 28.4768L229.084 28.5195L229.212 29.2349H218.3L218.428 28.5195L219.1 28.4768C220.529 28.3914 220.529 28.0978 220.529 27.7614V17.9649C220.529 14.7723 219.185 13.9715 217.212 13.9715C215.953 13.9715 214.988 14.3933 214.316 14.8097V27.7935C214.316 28.1725 214.524 28.338 215.953 28.4661L216.625 28.5089L216.71 29.2243H205.841L205.953 28.5142Z" fill="#D19B2A"/>
<path d="M230.805 26.4111C230.805 24.6439 232.271 23.1758 234.122 23.1758C235.887 23.1758 237.397 24.7294 237.397 26.4111C237.397 28.2583 235.887 29.7745 234.122 29.7745C232.271 29.7745 230.805 28.2636 230.805 26.4111Z" fill="#D19B2A"/>
</svg>
