<svg width="51" height="52" viewBox="0 0 51 52" fill="none" xmlns="http://www.w3.org/2000/svg">
<mask id="mask0_151_2" style="mask-type:alpha" maskUnits="userSpaceOnUse" x="7" y="0" width="35" height="35">
<rect x="7.77019" y="0.435547" width="34" height="34" fill="#D9D9D9"/>
</mask>
<g mask="url(#mask0_151_2)">
<path d="M23.3535 30.1855V27.3522H34.6869V17.2939C34.6869 15.9244 34.4271 14.6376 33.9077 13.4335C33.3882 12.2293 32.6799 11.1786 31.7827 10.2814C30.8855 9.38416 29.8348 8.67582 28.6306 8.15638C27.4264 7.63694 26.1396 7.37721 24.7702 7.37721C23.4007 7.37721 22.1139 7.63694 20.9098 8.15638C19.7056 8.67582 18.6549 9.38416 17.7577 10.2814C16.8605 11.1786 16.1521 12.2293 15.6327 13.4335C15.1132 14.6376 14.8535 15.9244 14.8535 17.2939V25.9355H13.4369C12.6577 25.9355 11.9909 25.6584 11.4365 25.104C10.8812 24.5486 10.6035 23.8814 10.6035 23.1022V20.2689C10.6035 19.7258 10.7334 19.2475 10.9931 18.8338C11.2528 18.4211 11.5952 18.0849 12.0202 17.8251L12.1264 15.948C12.3389 14.2244 12.8291 12.6661 13.5969 11.273C14.3638 9.87999 15.3201 8.69944 16.4657 7.73138C17.6104 6.76332 18.8972 6.01344 20.3261 5.48171C21.7541 4.95094 23.2355 4.68555 24.7702 4.68555C26.3285 4.68555 27.8222 4.95094 29.2511 5.48171C30.6791 6.01344 31.9598 6.76899 33.0931 7.74838C34.2264 8.72871 35.177 9.90927 35.9449 11.29C36.7117 12.6718 37.2014 14.2126 37.4139 15.9126L37.5202 17.7543C37.9452 17.9668 38.2875 18.2794 38.5473 18.6921C38.807 19.1058 38.9369 19.5605 38.9369 20.0564V23.3147C38.9369 23.8342 38.807 24.2946 38.5473 24.696C38.2875 25.0974 37.9452 25.4043 37.5202 25.6168V27.3522C37.5202 28.1314 37.243 28.7986 36.6886 29.354C36.1333 29.9084 35.466 30.1855 34.6869 30.1855H23.3535ZM20.5202 20.2689C20.1188 20.2689 19.7826 20.1329 19.5115 19.8609C19.2395 19.5898 19.1035 19.2536 19.1035 18.8522C19.1035 18.4508 19.2395 18.1141 19.5115 17.8421C19.7826 17.5711 20.1188 17.4355 20.5202 17.4355C20.9216 17.4355 21.2583 17.5711 21.5303 17.8421C21.8013 18.1141 21.9369 18.4508 21.9369 18.8522C21.9369 19.2536 21.8013 19.5898 21.5303 19.8609C21.2583 20.1329 20.9216 20.2689 20.5202 20.2689ZM29.0202 20.2689C28.6188 20.2689 28.2826 20.1329 28.0115 19.8609C27.7395 19.5898 27.6035 19.2536 27.6035 18.8522C27.6035 18.4508 27.7395 18.1141 28.0115 17.8421C28.2826 17.5711 28.6188 17.4355 29.0202 17.4355C29.4216 17.4355 29.7583 17.5711 30.0303 17.8421C30.3013 18.1141 30.4369 18.4508 30.4369 18.8522C30.4369 19.2536 30.3013 19.5898 30.0303 19.8609C29.7583 20.1329 29.4216 20.2689 29.0202 20.2689ZM16.3056 18.073C16.2112 16.68 16.4062 15.4168 16.8907 14.2835C17.3742 13.1501 18.0231 12.1877 18.8372 11.3963C19.6522 10.6058 20.591 9.99805 21.6535 9.57305C22.716 9.14805 23.7785 8.93555 24.841 8.93555C26.9896 8.93555 28.8492 9.6146 30.4199 10.9727C31.9895 12.3299 32.9396 14.0237 33.2702 16.0543C31.0507 16.0307 29.0438 15.4343 27.2494 14.265C25.4549 13.0968 24.0973 11.58 23.1764 9.71471C22.7987 11.6272 22.002 13.3211 20.7865 14.7963C19.5701 16.2725 18.0764 17.3647 16.3056 18.073Z" fill="#999999"/>
</g>
<path opacity="0.5" d="M4.74726 47.5996C2.61445 47.5996 1.17207 46.5537 1.04902 44.8652L1.04219 44.7695H2.27266L2.28633 44.8652C2.42988 45.8564 3.38691 46.4648 4.81562 46.4648C6.2375 46.4648 7.13301 45.8223 7.13301 44.8037V44.7969C7.13301 43.9287 6.56562 43.4434 5.21211 43.1426L4.11836 42.9033C2.19062 42.4795 1.28828 41.6113 1.28828 40.1689V40.1621C1.29512 38.542 2.73066 37.4072 4.76094 37.4072C6.68867 37.4072 8.09687 38.5215 8.20625 40.1348L8.21309 40.2373H6.98262L6.96894 40.1416C6.81855 39.1367 5.97773 38.542 4.72676 38.542C3.40742 38.5488 2.54609 39.1777 2.54609 40.1279V40.1348C2.54609 40.9414 3.14082 41.4473 4.42598 41.7275L5.51973 41.9668C7.54316 42.4111 8.39082 43.2314 8.39082 44.7354V44.7422C8.39082 46.4922 7.00312 47.5996 4.74726 47.5996ZM12.4754 47.5723C10.9168 47.5723 10.0145 46.5605 10.0145 44.9404V40.3262H11.2039V44.7285C11.2039 45.8838 11.7439 46.5195 12.8377 46.5195C13.9588 46.5195 14.6902 45.7197 14.6902 44.5098V40.3262H15.8797V47.4355H14.6902V46.4238H14.6629C14.2801 47.0869 13.5555 47.5723 12.4754 47.5723ZM17.8314 49.8281V40.3262H19.0209V41.5293H19.0482C19.4926 40.7021 20.2855 40.1895 21.3041 40.1895C23.1225 40.1895 24.3256 41.6387 24.3256 43.8809V43.8877C24.3256 46.1299 23.1088 47.5723 21.3246 47.5723C20.3197 47.5723 19.4926 47.0664 19.0482 46.2461H19.0209V49.8281H17.8314ZM21.0717 46.5195C22.3295 46.5195 23.1088 45.5078 23.1088 43.8877V43.8809C23.1088 42.2471 22.3295 41.2422 21.0717 41.2422C19.8686 41.2422 19.0141 42.2881 19.0141 43.8809V43.8877C19.0141 45.4736 19.8754 46.5195 21.0717 46.5195ZM25.9287 49.8281V40.3262H27.1182V41.5293H27.1455C27.5898 40.7021 28.3828 40.1895 29.4014 40.1895C31.2197 40.1895 32.4229 41.6387 32.4229 43.8809V43.8877C32.4229 46.1299 31.2061 47.5723 29.4219 47.5723C28.417 47.5723 27.5898 47.0664 27.1455 46.2461H27.1182V49.8281H25.9287ZM29.1689 46.5195C30.4268 46.5195 31.2061 45.5078 31.2061 43.8877V43.8809C31.2061 42.2471 30.4268 41.2422 29.1689 41.2422C27.9658 41.2422 27.1113 42.2881 27.1113 43.8809V43.8877C27.1113 45.4736 27.9727 46.5195 29.1689 46.5195ZM36.9723 47.5723C34.9967 47.5723 33.6773 46.1436 33.6773 43.8809V43.8672C33.6773 41.6045 35.0035 40.1895 36.9654 40.1895C38.9273 40.1895 40.2603 41.5977 40.2603 43.8672V43.8809C40.2603 46.1504 38.9342 47.5723 36.9723 47.5723ZM36.9791 46.5195C38.2301 46.5195 39.0436 45.5488 39.0436 43.8809V43.8672C39.0436 42.1992 38.2232 41.2422 36.9654 41.2422C35.7281 41.2422 34.8941 42.2061 34.8941 43.8672V43.8809C34.8941 45.5557 35.7213 46.5195 36.9791 46.5195ZM41.8635 47.4355V40.3262H43.0529V41.5293H43.0803C43.3195 40.709 43.9348 40.1895 44.7346 40.1895C44.9396 40.1895 45.1174 40.2236 45.2131 40.2373V41.3926C45.1174 41.3584 44.8645 41.3242 44.5773 41.3242C43.6545 41.3242 43.0529 41.9668 43.0529 43.0469V47.4355H41.8635ZM49.2361 47.5723C47.9305 47.5723 47.2879 46.9844 47.2879 45.624V41.3105H46.2488V40.3262H47.2879V38.4053H48.5184V40.3262H49.8719V41.3105H48.5184V45.6172C48.5184 46.376 48.8533 46.5879 49.4891 46.5879C49.6326 46.5879 49.7693 46.5674 49.8719 46.5605V47.5244C49.7215 47.5449 49.4686 47.5723 49.2361 47.5723Z" fill="#414141"/>
</svg>
