<svg width="17" height="17" viewBox="0 0 17 17" fill="none" xmlns="http://www.w3.org/2000/svg">
<path d="M5.85352 6.06104C6.13477 5.77979 6.60352 5.77979 6.88477 6.06104L8.35352 7.56104L9.85352 6.06104C10.1348 5.77979 10.6035 5.77979 10.8848 6.06104C11.1973 6.37354 11.1973 6.84229 10.8848 7.12354L9.41602 8.59229L10.8848 10.061C11.1973 10.3735 11.1973 10.8423 10.8848 11.1235C10.6035 11.436 10.1348 11.436 9.85352 11.1235L8.35352 9.65479L6.88477 11.1235C6.60352 11.436 6.13477 11.436 5.85352 11.1235C5.54102 10.8423 5.54102 10.3735 5.85352 10.061L7.32227 8.59229L5.85352 7.12354C5.54102 6.84229 5.54102 6.37354 5.85352 6.06104ZM16.3848 8.59229C16.3848 13.0298 12.791 16.5923 8.38477 16.5923C3.94727 16.5923 0.384766 13.0298 0.384766 8.59229C0.384766 4.18604 3.94727 0.592285 8.38477 0.592285C12.791 0.592285 16.3848 4.18604 16.3848 8.59229ZM8.38477 2.09229C4.79102 2.09229 1.88477 5.02979 1.88477 8.59229C1.88477 12.186 4.79102 15.0923 8.38477 15.0923C11.9473 15.0923 14.8848 12.186 14.8848 8.59229C14.8848 5.02979 11.9473 2.09229 8.38477 2.09229Z" fill="#999999"/>
</svg>
