<svg width="16" height="16" viewBox="0 0 16 16" fill="none" xmlns="http://www.w3.org/2000/svg">
<path d="M2.94964 15.1475V13.1475H9.74095C10.7453 13.1475 11.618 12.8141 12.3589 12.1475C13.1006 11.4808 13.4714 10.6475 13.4714 9.64746C13.4714 8.64746 13.1006 7.81413 12.3589 7.14746C11.618 6.48079 10.7453 6.14746 9.74095 6.14746H3.71486L6.20182 8.74746L4.86269 10.1475L0.0800781 5.14746L4.86269 0.147461L6.20182 1.54746L3.71486 4.14746H9.74095C11.2873 4.14746 12.6147 4.67246 13.7229 5.72246C14.8306 6.77246 15.3844 8.08079 15.3844 9.64746C15.3844 11.2141 14.8306 12.5225 13.7229 13.5725C12.6147 14.6225 11.2873 15.1475 9.74095 15.1475H2.94964Z" fill="url(#paint0_linear_20_11)"/>
<defs>
<linearGradient id="paint0_linear_20_11" x1="7.73225" y1="0.147461" x2="7.73225" y2="15.1475" gradientUnits="userSpaceOnUse">
<stop stop-color="#F1BD50"/>
<stop offset="1" stop-color="#D19B2A"/>
</linearGradient>
</defs>
</svg>
