<svg width="21" height="23" viewBox="0 0 21 23" fill="none" xmlns="http://www.w3.org/2000/svg">
<path d="M6.33362 17.8629H9.07738C9.42035 17.8629 9.76332 18.2058 9.76332 18.5488C9.76332 18.9346 9.42035 19.2347 9.07738 19.2347H6.33362C5.94778 19.2347 5.64768 18.9346 5.64768 18.5488C5.64768 18.2058 5.94778 17.8629 6.33362 17.8629ZM9.80619 20.6066C9.76332 20.9496 9.72045 21.2926 9.76332 21.6355C9.76332 22.0214 9.84906 22.3643 9.97767 22.6644H2.90392C1.36055 22.6644 0.160156 21.464 0.160156 19.9207V3.45812C0.160156 1.95762 1.36055 0.714355 2.90392 0.714355H12.5071C14.0076 0.714355 15.2508 1.95762 15.2508 3.45812V11.9466C14.4792 12.4182 13.7932 12.9327 13.193 13.5329V3.45812C13.193 3.11515 12.85 2.77218 12.5071 2.77218H2.90392C2.51808 2.77218 2.21798 3.11515 2.21798 3.45812V19.9207C2.21798 20.3065 2.51808 20.6066 2.90392 20.6066H9.80619Z" fill="#5C5C5C"/>
<path d="M12.6905 17.7973L14.8572 19.964L19.7322 15.089" stroke="#5C5C5C" stroke-width="2" stroke-linecap="round" stroke-linejoin="round"/>
</svg>
