<svg width="20" height="20" viewBox="0 0 20 20" fill="none" xmlns="http://www.w3.org/2000/svg">
<path d="M1.16272 18.8738L2.41096 14.3169C1.64089 12.9834 1.23593 11.4701 1.23639 9.92022C1.23871 5.07135 5.18452 1.12646 10.0338 1.12646C12.3872 1.12739 14.5954 2.04342 16.2565 3.70542C17.9171 5.36789 18.8318 7.5771 18.8308 9.92717C18.829 14.776 14.8822 18.7214 10.0338 18.7214H10.0301C8.55811 18.7209 7.11109 18.3516 5.82625 17.6506L1.16272 18.8738Z" fill="white"/>
<path d="M1.16262 19.1052C1.10146 19.1052 1.04215 19.0811 0.998134 19.0367C0.940217 18.9778 0.917513 18.8921 0.93929 18.8129L2.16205 14.3481C1.40402 13.0016 1.00416 11.4726 1.00508 9.92042C1.00694 4.94321 5.057 0.894531 10.0337 0.894531C12.4478 0.895458 14.7158 1.83558 16.4204 3.5416C18.1251 5.24808 19.0633 7.51568 19.0624 9.9269C19.0606 14.9036 15.01 18.9528 10.0337 18.9528C8.55615 18.9523 7.09431 18.5877 5.79696 17.8978L1.22146 19.0973C1.202 19.1029 1.18254 19.1052 1.16262 19.1052Z" fill="white"/>
<path d="M10.0338 1.12643C12.3871 1.12735 14.5954 2.04338 16.2564 3.70538C17.917 5.36785 18.8317 7.57706 18.8308 9.92713C18.8289 14.776 14.8822 18.7213 10.0338 18.7213H10.0301C8.55802 18.7209 7.111 18.3516 5.82616 17.6506L1.16263 18.8738L2.41087 14.3168C1.6408 12.9833 1.23584 11.4701 1.2363 9.92018C1.23862 5.07131 5.18443 1.12643 10.0338 1.12643ZM10.0338 0.663086C4.92959 0.663086 0.775275 4.81555 0.772958 9.92018C0.772495 11.4802 1.16634 13.0176 1.91324 14.3784L0.715504 18.7519C0.67195 18.9118 0.716431 19.0823 0.833193 19.2C0.921228 19.2889 1.04031 19.3376 1.16263 19.3376C1.20201 19.3376 1.2414 19.3325 1.28032 19.3223L5.7687 18.1454C7.07903 18.8256 8.54782 19.1847 10.0301 19.1851C15.1379 19.1851 19.2922 15.0322 19.2946 9.92759C19.2955 7.45381 18.3331 5.12784 16.5849 3.37826C14.8358 1.62823 12.5094 0.664013 10.0338 0.663086Z" fill="#CFD8DC"/>
<path d="M15.2056 4.75523C13.8248 3.37355 11.9895 2.61228 10.0361 2.61182C6.00316 2.61182 2.72317 5.89042 2.72131 9.92056C2.72085 11.3018 3.10728 12.6464 3.83936 13.8108L4.01357 14.0874L3.27454 16.7845L6.04208 16.0589L6.30943 16.2174C7.43164 16.8836 8.7188 17.2358 10.031 17.2363H10.0338C14.0639 17.2363 17.3439 13.9572 17.3453 9.92658C17.3457 7.9736 16.5863 6.13692 15.2056 4.75523Z" fill="#40C351"/>
<path fill-rule="evenodd" clip-rule="evenodd" d="M7.83475 6.24393C7.67026 5.87789 7.49697 5.87048 7.3399 5.86399C7.21156 5.85843 7.06514 5.8589 6.91872 5.8589C6.77231 5.8589 6.53415 5.91403 6.3326 6.13412C6.13104 6.35421 5.56299 6.88566 5.56299 7.9671C5.56299 9.04854 6.35067 10.0938 6.46048 10.2402C6.57029 10.3867 7.98117 12.677 10.2154 13.5582C12.072 14.2903 12.4501 14.1448 12.8532 14.1082C13.2563 14.0716 14.1538 13.5768 14.3368 13.0634C14.5198 12.55 14.5198 12.1103 14.4652 12.0186C14.41 11.9268 14.2636 11.8721 14.044 11.7619C13.8244 11.6516 12.7434 11.1201 12.5418 11.0469C12.3403 10.9737 12.1939 10.9371 12.047 11.1572C11.9006 11.3768 11.4794 11.8721 11.351 12.0186C11.2227 12.1654 11.0944 12.184 10.8747 12.0737C10.6551 11.9634 9.94712 11.7317 9.10708 10.983C8.45377 10.4006 8.01267 9.681 7.88433 9.46091C7.75598 9.24129 7.87043 9.12221 7.9807 9.0124C8.07939 8.9137 8.20033 8.7557 8.3106 8.62736C8.42041 8.49901 8.45702 8.40727 8.53022 8.26086C8.60343 8.11398 8.56683 7.98563 8.51169 7.87582C8.45748 7.76554 8.03028 6.67855 7.83475 6.24393Z" fill="white"/>
</svg>
